<mxfile host="app.diagrams.net" agent="Mozilla/5.0 (Windows NT 10.0; Win64; x64) AppleWebKit/537.36 (KHTML, like Gecko) Chrome/133.0.0.0 Safari/537.36" version="26.0.15">
  <diagram id="R2lEEEUBdFMjLlhIrx00" name="Page-1">
    <mxGraphModel dx="5854" dy="3257" grid="0" gridSize="10" guides="1" tooltips="1" connect="1" arrows="1" fold="1" page="1" pageScale="1" pageWidth="1654" pageHeight="1169" math="0" shadow="0" extFonts="Permanent Marker^https://fonts.googleapis.com/css?family=Permanent+Marker">
      <root>
        <mxCell id="0" />
        <mxCell id="1" parent="0" />
        <mxCell id="7bwA_UZl1lktJwLHYLpA-2" value="" style="rounded=0;whiteSpace=wrap;html=1;" parent="1" vertex="1">
          <mxGeometry x="1761" y="80" width="990" height="50" as="geometry" />
        </mxCell>
        <mxCell id="7bwA_UZl1lktJwLHYLpA-15" value="&lt;div&gt;&lt;u style=&quot;font-size: 20px; font-weight: 700;&quot;&gt;Customer_ID&lt;/u&gt;&lt;/div&gt;" style="rounded=0;html=1;strokeColor=default;align=center;verticalAlign=middle;fontFamily=Helvetica;fontSize=12;fontStyle=4;fillColor=#ffe6cc;whiteSpace=wrap;" parent="1" vertex="1">
          <mxGeometry x="1760" y="80" width="200" height="50" as="geometry" />
        </mxCell>
        <mxCell id="7bwA_UZl1lktJwLHYLpA-122" value="&lt;br&gt;&lt;span style=&quot;forced-color-adjust: none; color: rgb(0, 0, 0); font-family: Helvetica; font-size: 20px; font-style: normal; font-variant-ligatures: normal; font-variant-caps: normal; font-weight: 700; letter-spacing: normal; orphans: 2; text-align: center; text-indent: 0px; text-transform: none; widows: 2; word-spacing: 0px; -webkit-text-stroke-width: 0px; white-space: normal; background-color: rgb(251, 251, 251);&quot;&gt;C_First_Name&lt;/span&gt;&lt;div&gt;&lt;br&gt;&lt;/div&gt;" style="rounded=0;html=1;strokeColor=default;align=center;verticalAlign=middle;fontFamily=Helvetica;fontSize=12;fontColor=default;fontStyle=0;fillColor=default;whiteSpace=wrap;" parent="1" vertex="1">
          <mxGeometry x="1961" y="80" width="200" height="50" as="geometry" />
        </mxCell>
        <mxCell id="7bwA_UZl1lktJwLHYLpA-123" value="" style="rounded=0;whiteSpace=wrap;html=1;" parent="1" vertex="1">
          <mxGeometry x="1761" y="400" width="1000" height="50" as="geometry" />
        </mxCell>
        <mxCell id="7bwA_UZl1lktJwLHYLpA-124" value="&lt;br&gt;&lt;span style=&quot;forced-color-adjust: none; color: rgb(0, 0, 0); font-family: Helvetica; font-style: normal; font-variant-ligatures: normal; font-variant-caps: normal; letter-spacing: normal; orphans: 2; text-align: center; text-indent: 0px; text-transform: none; widows: 2; word-spacing: 0px; -webkit-text-stroke-width: 0px; white-space: normal; text-decoration-thickness: initial; text-decoration-style: initial; text-decoration-color: initial; font-size: 20px; font-weight: 700; background-color: rgb(251, 251, 251);&quot;&gt;C_Last_Name&lt;/span&gt;&lt;div&gt;&lt;br/&gt;&lt;/div&gt;" style="rounded=0;html=1;strokeColor=default;align=center;verticalAlign=middle;fontFamily=Helvetica;fontSize=12;fontColor=default;fontStyle=0;fillColor=default;whiteSpace=wrap;" parent="1" vertex="1">
          <mxGeometry x="2160" y="80" width="200" height="50" as="geometry" />
        </mxCell>
        <mxCell id="7bwA_UZl1lktJwLHYLpA-125" value="&lt;span style=&quot;font-size: 20px; font-weight: 700;&quot;&gt;Customer_Phone&lt;/span&gt;" style="rounded=0;html=1;strokeColor=default;align=center;verticalAlign=middle;fontFamily=Helvetica;fontSize=12;fontColor=default;fontStyle=0;fillColor=default;whiteSpace=wrap;" parent="1" vertex="1">
          <mxGeometry x="2351" y="80" width="200" height="50" as="geometry" />
        </mxCell>
        <mxCell id="7bwA_UZl1lktJwLHYLpA-404" style="edgeStyle=none;shape=connector;rounded=0;orthogonalLoop=1;jettySize=auto;html=1;strokeColor=default;strokeWidth=3;align=center;verticalAlign=middle;fontFamily=Helvetica;fontSize=12;fontColor=default;fontStyle=0;labelBackgroundColor=default;endArrow=none;" parent="1" source="7bwA_UZl1lktJwLHYLpA-126" edge="1">
          <mxGeometry relative="1" as="geometry">
            <mxPoint x="2650" y="160" as="targetPoint" />
          </mxGeometry>
        </mxCell>
        <mxCell id="7bwA_UZl1lktJwLHYLpA-126" value="&lt;span style=&quot;font-size: 20px; font-weight: 700;&quot;&gt;User_ID&lt;/span&gt;" style="rounded=0;html=1;strokeColor=default;align=center;verticalAlign=middle;fontFamily=Helvetica;fontSize=12;fontStyle=0;fillColor=#e1d5e7;whiteSpace=wrap;" parent="1" vertex="1">
          <mxGeometry x="2551" y="80" width="200" height="50" as="geometry" />
        </mxCell>
        <mxCell id="7bwA_UZl1lktJwLHYLpA-127" value="&lt;span style=&quot;font-size: 20px; font-weight: 700;&quot;&gt;Admin_ID&lt;/span&gt;" style="rounded=0;html=1;strokeColor=default;align=center;verticalAlign=middle;fontFamily=Helvetica;fontSize=12;fontStyle=4;fillColor=#ffe6cc;whiteSpace=wrap;" parent="1" vertex="1">
          <mxGeometry x="1761" y="400" width="200" height="50" as="geometry" />
        </mxCell>
        <mxCell id="7bwA_UZl1lktJwLHYLpA-128" value="&lt;span style=&quot;font-size: 20px; font-weight: 700;&quot;&gt;A_First_Name&lt;/span&gt;" style="rounded=0;html=1;strokeColor=default;align=center;verticalAlign=middle;fontFamily=Helvetica;fontSize=12;fontColor=default;fontStyle=0;fillColor=default;whiteSpace=wrap;" parent="1" vertex="1">
          <mxGeometry x="1961" y="400" width="200" height="50" as="geometry" />
        </mxCell>
        <mxCell id="7bwA_UZl1lktJwLHYLpA-132" value="&lt;div&gt;&lt;span style=&quot;background-color: light-dark(rgb(251, 251, 251), rgb(21, 21, 21)); color: light-dark(rgb(0, 0, 0), rgb(237, 237, 237)); font-size: 20px; font-weight: 700;&quot;&gt;A_Last_Name&lt;/span&gt;&lt;/div&gt;" style="rounded=0;html=1;strokeColor=default;align=center;verticalAlign=middle;fontFamily=Helvetica;fontSize=12;fontColor=default;fontStyle=0;fillColor=default;whiteSpace=wrap;" parent="1" vertex="1">
          <mxGeometry x="2160" y="400" width="200" height="50" as="geometry" />
        </mxCell>
        <mxCell id="7bwA_UZl1lktJwLHYLpA-133" value="&lt;span style=&quot;font-size: 20px; font-weight: 700;&quot;&gt;Image&lt;/span&gt;" style="rounded=0;html=1;strokeColor=default;align=center;verticalAlign=middle;fontFamily=Helvetica;fontSize=12;fontColor=default;fontStyle=0;fillColor=default;whiteSpace=wrap;" parent="1" vertex="1">
          <mxGeometry x="2360" y="400" width="200" height="50" as="geometry" />
        </mxCell>
        <mxCell id="7bwA_UZl1lktJwLHYLpA-398" style="edgeStyle=none;shape=connector;rounded=0;orthogonalLoop=1;jettySize=auto;html=1;strokeColor=default;strokeWidth=3;align=center;verticalAlign=middle;fontFamily=Helvetica;fontSize=12;fontColor=default;fontStyle=0;labelBackgroundColor=default;endArrow=none;" parent="1" source="7bwA_UZl1lktJwLHYLpA-134" edge="1">
          <mxGeometry relative="1" as="geometry">
            <mxPoint x="2660" y="320" as="targetPoint" />
          </mxGeometry>
        </mxCell>
        <mxCell id="7bwA_UZl1lktJwLHYLpA-134" value="&lt;span style=&quot;font-size: 20px; font-weight: 700;&quot;&gt;User_ID&lt;/span&gt;" style="rounded=0;html=1;align=center;verticalAlign=middle;fontFamily=Helvetica;fontSize=12;fontStyle=0;whiteSpace=wrap;fillColor=#e1d5e7;strokeColor=default;" parent="1" vertex="1">
          <mxGeometry x="2560" y="400" width="200" height="50" as="geometry" />
        </mxCell>
        <mxCell id="7bwA_UZl1lktJwLHYLpA-135" value="" style="rounded=0;whiteSpace=wrap;html=1;" parent="1" vertex="1">
          <mxGeometry x="1760" y="240" width="800" height="50" as="geometry" />
        </mxCell>
        <mxCell id="7bwA_UZl1lktJwLHYLpA-136" value="&lt;u style=&quot;font-size: 20px; font-weight: 700;&quot;&gt;User_ID&lt;/u&gt;" style="rounded=0;html=1;strokeColor=default;align=center;verticalAlign=middle;fontFamily=Helvetica;fontSize=12;fontStyle=4;fillColor=#ffe6cc;whiteSpace=wrap;" parent="1" vertex="1">
          <mxGeometry x="1760" y="240" width="200" height="50" as="geometry" />
        </mxCell>
        <mxCell id="7bwA_UZl1lktJwLHYLpA-138" value="&lt;span style=&quot;font-size: 20px; font-weight: 700;&quot;&gt;Email&lt;/span&gt;" style="rounded=0;html=1;strokeColor=default;align=center;verticalAlign=middle;fontFamily=Helvetica;fontSize=12;fontColor=default;fontStyle=0;fillColor=default;whiteSpace=wrap;" parent="1" vertex="1">
          <mxGeometry x="1960" y="240" width="200" height="50" as="geometry" />
        </mxCell>
        <mxCell id="7bwA_UZl1lktJwLHYLpA-139" value="&lt;span style=&quot;font-size: 20px; font-weight: 700;&quot;&gt;User_Type&lt;/span&gt;" style="rounded=0;html=1;strokeColor=default;align=center;verticalAlign=middle;fontFamily=Helvetica;fontSize=12;fontColor=default;fontStyle=0;fillColor=default;whiteSpace=wrap;" parent="1" vertex="1">
          <mxGeometry x="2160" y="240" width="200" height="50" as="geometry" />
        </mxCell>
        <mxCell id="7bwA_UZl1lktJwLHYLpA-140" value="&lt;span style=&quot;font-size: 20px; font-weight: 700;&quot;&gt;Password&lt;/span&gt;" style="rounded=0;html=1;strokeColor=default;align=center;verticalAlign=middle;fontFamily=Helvetica;fontSize=12;fontColor=default;fontStyle=0;fillColor=default;whiteSpace=wrap;" parent="1" vertex="1">
          <mxGeometry x="2360" y="240" width="200" height="50" as="geometry" />
        </mxCell>
        <mxCell id="7bwA_UZl1lktJwLHYLpA-141" value="" style="rounded=0;whiteSpace=wrap;html=1;" parent="1" vertex="1">
          <mxGeometry x="-489" y="320" width="1400" height="50" as="geometry" />
        </mxCell>
        <mxCell id="7bwA_UZl1lktJwLHYLpA-142" value="" style="rounded=0;whiteSpace=wrap;html=1;" parent="1" vertex="1">
          <mxGeometry x="-490" y="480" width="600" height="50" as="geometry" />
        </mxCell>
        <mxCell id="7bwA_UZl1lktJwLHYLpA-271" style="edgeStyle=orthogonalEdgeStyle;rounded=0;orthogonalLoop=1;jettySize=auto;html=1;exitX=0.5;exitY=0;exitDx=0;exitDy=0;entryX=0.75;entryY=0;entryDx=0;entryDy=0;fontFamily=Helvetica;fontSize=12;fontColor=default;fontStyle=0;strokeWidth=3;" parent="1" source="7bwA_UZl1lktJwLHYLpA-143" target="7bwA_UZl1lktJwLHYLpA-136" edge="1">
          <mxGeometry relative="1" as="geometry" />
        </mxCell>
        <mxCell id="7bwA_UZl1lktJwLHYLpA-143" value="&lt;span style=&quot;font-size: 20px; font-weight: 700;&quot;&gt;User_ID&lt;/span&gt;" style="rounded=0;html=1;align=center;verticalAlign=middle;fontFamily=Helvetica;fontSize=12;fontStyle=0;whiteSpace=wrap;fillColor=#e1d5e7;strokeColor=default;" parent="1" vertex="1">
          <mxGeometry x="712" y="320" width="200" height="50" as="geometry" />
        </mxCell>
        <mxCell id="7bwA_UZl1lktJwLHYLpA-144" value="&lt;u style=&quot;font-size: 20px; font-weight: 700;&quot;&gt;Rider_ID&lt;/u&gt;&lt;span style=&quot;background-color: light-dark(#ffffff, var(--ge-dark-color, #121212));&quot;&gt;&lt;/span&gt;" style="rounded=0;html=1;strokeColor=default;align=center;verticalAlign=middle;fontFamily=Helvetica;fontSize=12;fontStyle=4;fillColor=#ffe6cc;whiteSpace=wrap;" parent="1" vertex="1">
          <mxGeometry x="-490" y="320" width="200" height="50" as="geometry" />
        </mxCell>
        <mxCell id="7bwA_UZl1lktJwLHYLpA-145" value="&lt;span style=&quot;font-size: 20px; font-weight: 700;&quot;&gt;R_First_Name&lt;/span&gt;" style="rounded=0;html=1;strokeColor=default;align=center;verticalAlign=middle;fontFamily=Helvetica;fontSize=12;fontColor=default;fontStyle=0;fillColor=default;whiteSpace=wrap;" parent="1" vertex="1">
          <mxGeometry x="-289" y="320" width="200" height="50" as="geometry" />
        </mxCell>
        <mxCell id="7bwA_UZl1lktJwLHYLpA-146" value="&lt;span style=&quot;font-size: 20px; font-weight: 700;&quot;&gt;R_Last_Name&lt;/span&gt;" style="rounded=0;html=1;strokeColor=default;align=center;verticalAlign=middle;fontFamily=Helvetica;fontSize=12;fontColor=default;fontStyle=0;fillColor=default;whiteSpace=wrap;" parent="1" vertex="1">
          <mxGeometry x="-89" y="320" width="200" height="50" as="geometry" />
        </mxCell>
        <mxCell id="7bwA_UZl1lktJwLHYLpA-147" value="&lt;span style=&quot;font-size: 20px; font-weight: 700;&quot;&gt;Rider_Phone&lt;/span&gt;" style="rounded=0;html=1;strokeColor=default;align=center;verticalAlign=middle;fontFamily=Helvetica;fontSize=12;fontColor=default;fontStyle=0;fillColor=default;whiteSpace=wrap;" parent="1" vertex="1">
          <mxGeometry x="110" y="320" width="200" height="50" as="geometry" />
        </mxCell>
        <mxCell id="7bwA_UZl1lktJwLHYLpA-148" value="&lt;span style=&quot;font-size: 20px; font-weight: 700;&quot;&gt;City_Corporation&lt;/span&gt;" style="rounded=0;html=1;strokeColor=default;align=center;verticalAlign=middle;fontFamily=Helvetica;fontSize=12;fontColor=default;fontStyle=0;fillColor=default;whiteSpace=wrap;" parent="1" vertex="1">
          <mxGeometry x="-290" y="480" width="200" height="50" as="geometry" />
        </mxCell>
        <mxCell id="7bwA_UZl1lktJwLHYLpA-151" value="" style="rounded=0;whiteSpace=wrap;html=1;" parent="1" vertex="1">
          <mxGeometry x="-488" y="640" width="1200" height="50" as="geometry" />
        </mxCell>
        <mxCell id="7bwA_UZl1lktJwLHYLpA-273" style="edgeStyle=orthogonalEdgeStyle;rounded=0;orthogonalLoop=1;jettySize=auto;html=1;exitX=0.5;exitY=0;exitDx=0;exitDy=0;entryX=0.75;entryY=0;entryDx=0;entryDy=0;fontFamily=Helvetica;fontSize=12;fontColor=default;fontStyle=0;strokeWidth=3;" parent="1" source="7bwA_UZl1lktJwLHYLpA-153" target="7bwA_UZl1lktJwLHYLpA-224" edge="1">
          <mxGeometry relative="1" as="geometry">
            <Array as="points">
              <mxPoint x="412" y="540" />
              <mxPoint x="1720" y="540" />
            </Array>
          </mxGeometry>
        </mxCell>
        <mxCell id="7bwA_UZl1lktJwLHYLpA-153" value="&lt;span style=&quot;font-size: 20px; font-weight: 700;&quot;&gt;Product_ID&lt;/span&gt;" style="rounded=0;html=1;align=center;verticalAlign=middle;fontFamily=Helvetica;fontSize=12;fontStyle=0;whiteSpace=wrap;fillColor=#e1d5e7;strokeColor=default;" parent="1" vertex="1">
          <mxGeometry x="312" y="640" width="200" height="50" as="geometry" />
        </mxCell>
        <mxCell id="7bwA_UZl1lktJwLHYLpA-155" value="&lt;span style=&quot;font-size: 20px; font-weight: 700;&quot;&gt;Active_status&lt;/span&gt;" style="rounded=0;html=1;strokeColor=default;align=center;verticalAlign=middle;fontFamily=Helvetica;fontSize=12;fontColor=default;fontStyle=0;fillColor=default;whiteSpace=wrap;" parent="1" vertex="1">
          <mxGeometry x="311" y="320" width="200" height="50" as="geometry" />
        </mxCell>
        <mxCell id="7bwA_UZl1lktJwLHYLpA-156" value="&lt;span style=&quot;font-size: 20px; font-weight: 700;&quot;&gt;Max_Delivery&lt;/span&gt;" style="rounded=0;html=1;strokeColor=default;align=center;verticalAlign=middle;fontFamily=Helvetica;fontSize=12;fontColor=default;fontStyle=0;fillColor=default;whiteSpace=wrap;" parent="1" vertex="1">
          <mxGeometry x="511" y="320" width="200" height="50" as="geometry" />
        </mxCell>
        <mxCell id="7bwA_UZl1lktJwLHYLpA-157" value="&lt;span style=&quot;font-size: 20px; font-weight: 700;&quot;&gt;Upazila&lt;/span&gt;" style="rounded=0;html=1;strokeColor=default;align=center;verticalAlign=middle;fontFamily=Helvetica;fontSize=12;fontColor=default;fontStyle=0;fillColor=default;whiteSpace=wrap;" parent="1" vertex="1">
          <mxGeometry x="-90" y="480" width="200" height="50" as="geometry" />
        </mxCell>
        <mxCell id="7bwA_UZl1lktJwLHYLpA-158" value="" style="rounded=0;whiteSpace=wrap;html=1;" parent="1" vertex="1">
          <mxGeometry x="-488" y="30" width="1200" height="50" as="geometry" />
        </mxCell>
        <mxCell id="7bwA_UZl1lktJwLHYLpA-159" value="" style="rounded=0;whiteSpace=wrap;html=1;" parent="1" vertex="1">
          <mxGeometry x="1480" y="720" width="1800" height="50" as="geometry" />
        </mxCell>
        <mxCell id="7bwA_UZl1lktJwLHYLpA-160" value="" style="rounded=0;whiteSpace=wrap;html=1;" parent="1" vertex="1">
          <mxGeometry x="-488" y="950" width="800" height="50" as="geometry" />
        </mxCell>
        <mxCell id="7bwA_UZl1lktJwLHYLpA-161" value="&lt;span style=&quot;font-size: 20px; font-weight: 700;&quot;&gt;Audit_ID&lt;/span&gt;" style="rounded=0;html=1;strokeColor=default;align=center;verticalAlign=middle;fontFamily=Helvetica;fontSize=12;fontStyle=4;fillColor=#ffe6cc;whiteSpace=wrap;" parent="1" vertex="1">
          <mxGeometry x="-488" y="640" width="200" height="50" as="geometry" />
        </mxCell>
        <mxCell id="7bwA_UZl1lktJwLHYLpA-162" value="&lt;span style=&quot;font-size: 20px; font-weight: 700;&quot;&gt;Change_Type&lt;/span&gt;" style="rounded=0;html=1;strokeColor=default;align=center;verticalAlign=middle;fontFamily=Helvetica;fontSize=12;fontColor=default;fontStyle=0;fillColor=default;whiteSpace=wrap;" parent="1" vertex="1">
          <mxGeometry x="-288" y="640" width="200" height="50" as="geometry" />
        </mxCell>
        <mxCell id="7bwA_UZl1lktJwLHYLpA-163" value="&lt;span style=&quot;font-size: 20px; font-weight: 700;&quot;&gt;Change_Details&lt;/span&gt;" style="rounded=0;html=1;strokeColor=default;align=center;verticalAlign=middle;fontFamily=Helvetica;fontSize=12;fontColor=default;fontStyle=0;fillColor=default;whiteSpace=wrap;" parent="1" vertex="1">
          <mxGeometry x="-88" y="640" width="200" height="50" as="geometry" />
        </mxCell>
        <mxCell id="7bwA_UZl1lktJwLHYLpA-272" style="edgeStyle=orthogonalEdgeStyle;rounded=0;orthogonalLoop=1;jettySize=auto;html=1;exitX=0.5;exitY=0;exitDx=0;exitDy=0;entryX=0.75;entryY=0;entryDx=0;entryDy=0;fontFamily=Helvetica;fontSize=12;fontColor=default;fontStyle=0;strokeWidth=3;" parent="1" source="7bwA_UZl1lktJwLHYLpA-164" target="7bwA_UZl1lktJwLHYLpA-127" edge="1">
          <mxGeometry relative="1" as="geometry">
            <Array as="points">
              <mxPoint x="612" y="380" />
              <mxPoint x="1911" y="380" />
            </Array>
          </mxGeometry>
        </mxCell>
        <mxCell id="7bwA_UZl1lktJwLHYLpA-164" value="&lt;span style=&quot;font-size: 20px; font-weight: 700;&quot;&gt;Admin_ID&lt;/span&gt;" style="rounded=0;html=1;align=center;verticalAlign=middle;fontFamily=Helvetica;fontSize=12;fontStyle=0;whiteSpace=wrap;fillColor=#e1d5e7;strokeColor=default;" parent="1" vertex="1">
          <mxGeometry x="512" y="640" width="200" height="50" as="geometry" />
        </mxCell>
        <mxCell id="7bwA_UZl1lktJwLHYLpA-167" value="&lt;span style=&quot;font-size: 20px; font-weight: 700;&quot;&gt;Time_Stamp&lt;/span&gt;" style="rounded=0;html=1;strokeColor=default;align=center;verticalAlign=middle;fontFamily=Helvetica;fontSize=12;fontColor=default;fontStyle=0;fillColor=default;whiteSpace=wrap;" parent="1" vertex="1">
          <mxGeometry x="112" y="640" width="200" height="50" as="geometry" />
        </mxCell>
        <mxCell id="7bwA_UZl1lktJwLHYLpA-168" value="&lt;u style=&quot;font-size: 20px; font-weight: 700;&quot;&gt;Address_ID&lt;/u&gt;" style="rounded=0;html=1;strokeColor=default;align=center;verticalAlign=middle;fontFamily=Helvetica;fontSize=12;fontStyle=4;fillColor=#ffe6cc;whiteSpace=wrap;" parent="1" vertex="1">
          <mxGeometry x="-488" y="30" width="200" height="50" as="geometry" />
        </mxCell>
        <mxCell id="7bwA_UZl1lktJwLHYLpA-169" value="&lt;span style=&quot;font-size: 20px; font-weight: 700;&quot;&gt;Full_Address&lt;/span&gt;" style="rounded=0;html=1;strokeColor=default;align=center;verticalAlign=middle;fontFamily=Helvetica;fontSize=12;fontColor=default;fontStyle=0;fillColor=default;whiteSpace=wrap;" parent="1" vertex="1">
          <mxGeometry x="-288" y="30" width="200" height="50" as="geometry" />
        </mxCell>
        <mxCell id="7bwA_UZl1lktJwLHYLpA-170" value="&lt;span style=&quot;font-size: 20px; font-weight: 700;&quot;&gt;Gift_Amount&lt;/span&gt;" style="rounded=0;html=1;strokeColor=default;align=center;verticalAlign=middle;fontFamily=Helvetica;fontSize=12;fontColor=default;fontStyle=0;fillColor=default;whiteSpace=wrap;" parent="1" vertex="1">
          <mxGeometry x="1680" y="720" width="200" height="50" as="geometry" />
        </mxCell>
        <mxCell id="7bwA_UZl1lktJwLHYLpA-171" value="&lt;span style=&quot;font-size: 20px; font-weight: 700;&quot;&gt;Gift_Card_ID&lt;/span&gt;" style="rounded=0;html=1;strokeColor=default;align=center;verticalAlign=middle;fontFamily=Helvetica;fontSize=12;fontStyle=4;fillColor=#ffe6cc;whiteSpace=wrap;" parent="1" vertex="1">
          <mxGeometry x="1480" y="720" width="200" height="50" as="geometry" />
        </mxCell>
        <mxCell id="7bwA_UZl1lktJwLHYLpA-270" style="edgeStyle=orthogonalEdgeStyle;rounded=0;orthogonalLoop=1;jettySize=auto;html=1;exitX=0.5;exitY=0;exitDx=0;exitDy=0;entryX=0.75;entryY=0;entryDx=0;entryDy=0;fontFamily=Helvetica;fontSize=12;fontColor=default;fontStyle=0;strokeWidth=3;" parent="1" source="7bwA_UZl1lktJwLHYLpA-172" target="7bwA_UZl1lktJwLHYLpA-15" edge="1">
          <mxGeometry relative="1" as="geometry" />
        </mxCell>
        <mxCell id="7bwA_UZl1lktJwLHYLpA-172" value="&lt;span style=&quot;font-size: 20px; font-weight: 700;&quot;&gt;Customer_ID&lt;/span&gt;" style="rounded=0;html=1;align=center;verticalAlign=middle;fontFamily=Helvetica;fontSize=12;fontStyle=0;whiteSpace=wrap;fillColor=#e1d5e7;strokeColor=default;" parent="1" vertex="1">
          <mxGeometry x="512" y="30" width="200" height="50" as="geometry" />
        </mxCell>
        <mxCell id="7bwA_UZl1lktJwLHYLpA-173" value="&lt;span style=&quot;font-size: 20px; font-weight: 700;&quot;&gt;Payment_ID&lt;/span&gt;" style="rounded=0;html=1;align=center;verticalAlign=middle;fontFamily=Helvetica;fontSize=12;fontStyle=0;whiteSpace=wrap;fillColor=#e1d5e7;strokeColor=default;" parent="1" vertex="1">
          <mxGeometry x="3080" y="720" width="200" height="50" as="geometry" />
        </mxCell>
        <mxCell id="7bwA_UZl1lktJwLHYLpA-174" value="&lt;span style=&quot;font-size: 20px; font-weight: 700;&quot;&gt;User_ID&lt;/span&gt;" style="rounded=0;html=1;align=center;verticalAlign=middle;fontFamily=Helvetica;fontSize=12;fontStyle=0;whiteSpace=wrap;fillColor=#e1d5e7;strokeColor=default;" parent="1" vertex="1">
          <mxGeometry x="2280" y="1200" width="200" height="50" as="geometry" />
        </mxCell>
        <mxCell id="7bwA_UZl1lktJwLHYLpA-179" value="&lt;span style=&quot;font-size: 20px; font-weight: 700;&quot;&gt;City_corporation&lt;/span&gt;" style="rounded=0;html=1;strokeColor=default;align=center;verticalAlign=middle;fontFamily=Helvetica;fontSize=12;fontColor=default;fontStyle=0;fillColor=default;whiteSpace=wrap;" parent="1" vertex="1">
          <mxGeometry x="-88" y="30" width="200" height="50" as="geometry" />
        </mxCell>
        <mxCell id="7bwA_UZl1lktJwLHYLpA-180" value="&lt;span style=&quot;font-size: 20px; font-weight: 700;&quot;&gt;Sender_ID&lt;/span&gt;" style="rounded=0;html=1;strokeColor=default;align=center;verticalAlign=middle;fontFamily=Helvetica;fontSize=12;fontColor=default;fontStyle=0;fillColor=default;whiteSpace=wrap;" parent="1" vertex="1">
          <mxGeometry x="1880" y="720" width="200" height="50" as="geometry" />
        </mxCell>
        <mxCell id="7bwA_UZl1lktJwLHYLpA-181" value="&lt;span style=&quot;font-size: 20px; font-weight: 700;&quot;&gt;Upazila&lt;/span&gt;" style="rounded=0;html=1;strokeColor=default;align=center;verticalAlign=middle;fontFamily=Helvetica;fontSize=12;fontColor=default;fontStyle=0;fillColor=default;whiteSpace=wrap;" parent="1" vertex="1">
          <mxGeometry x="112" y="30" width="200" height="50" as="geometry" />
        </mxCell>
        <mxCell id="7bwA_UZl1lktJwLHYLpA-182" value="&lt;span style=&quot;font-size: 20px; font-weight: 700;&quot;&gt;Personal_Note&lt;/span&gt;" style="rounded=0;html=1;strokeColor=default;align=center;verticalAlign=middle;fontFamily=Helvetica;fontSize=12;fontColor=default;fontStyle=0;fillColor=default;whiteSpace=wrap;" parent="1" vertex="1">
          <mxGeometry x="2080" y="720" width="200" height="50" as="geometry" />
        </mxCell>
        <mxCell id="7bwA_UZl1lktJwLHYLpA-185" value="&lt;span style=&quot;font-size: 20px; font-weight: 700;&quot;&gt;Postal_Code&lt;/span&gt;" style="rounded=0;html=1;strokeColor=default;align=center;verticalAlign=middle;fontFamily=Helvetica;fontSize=12;fontColor=default;fontStyle=0;fillColor=default;whiteSpace=wrap;" parent="1" vertex="1">
          <mxGeometry x="312" y="30" width="200" height="50" as="geometry" />
        </mxCell>
        <mxCell id="7bwA_UZl1lktJwLHYLpA-186" value="" style="rounded=0;whiteSpace=wrap;html=1;" parent="1" vertex="1">
          <mxGeometry x="1480" y="1200" width="1470" height="50" as="geometry" />
        </mxCell>
        <mxCell id="7bwA_UZl1lktJwLHYLpA-187" value="" style="rounded=0;whiteSpace=wrap;html=1;" parent="1" vertex="1">
          <mxGeometry x="-489" y="800" width="400" height="50" as="geometry" />
        </mxCell>
        <mxCell id="7bwA_UZl1lktJwLHYLpA-188" value="" style="rounded=0;whiteSpace=wrap;html=1;" parent="1" vertex="1">
          <mxGeometry x="1660" y="880" width="1400" height="50" as="geometry" />
        </mxCell>
        <mxCell id="7bwA_UZl1lktJwLHYLpA-189" value="&lt;u style=&quot;font-size: 20px; font-weight: 700;&quot;&gt;Delivery_ID&lt;/u&gt;" style="rounded=0;html=1;strokeColor=default;align=center;verticalAlign=middle;fontFamily=Helvetica;fontSize=12;fontStyle=4;fillColor=#ffe6cc;whiteSpace=wrap;" parent="1" vertex="1">
          <mxGeometry x="1480" y="1200" width="190" height="50" as="geometry" />
        </mxCell>
        <mxCell id="7bwA_UZl1lktJwLHYLpA-190" value="&lt;span style=&quot;font-size: 20px; font-weight: 700;&quot;&gt;Actual_Delivery_date&lt;/span&gt;" style="rounded=0;html=1;strokeColor=default;align=center;verticalAlign=middle;fontFamily=Helvetica;fontSize=12;fontColor=default;fontStyle=0;fillColor=default;whiteSpace=wrap;" parent="1" vertex="1">
          <mxGeometry x="1670" y="1200" width="210" height="50" as="geometry" />
        </mxCell>
        <mxCell id="7bwA_UZl1lktJwLHYLpA-191" value="&lt;span style=&quot;font-size: 20px; font-weight: 700;&quot;&gt;Order_Date&lt;/span&gt;" style="rounded=0;html=1;strokeColor=default;align=center;verticalAlign=middle;fontFamily=Helvetica;fontSize=12;fontColor=default;fontStyle=0;fillColor=default;whiteSpace=wrap;" parent="1" vertex="1">
          <mxGeometry x="1860" y="880" width="200" height="50" as="geometry" />
        </mxCell>
        <mxCell id="7bwA_UZl1lktJwLHYLpA-192" value="&lt;u style=&quot;font-size: 20px; font-weight: 700;&quot;&gt;Category_ID&lt;/u&gt;" style="rounded=0;html=1;strokeColor=default;align=center;verticalAlign=middle;fontFamily=Helvetica;fontSize=12;fontStyle=4;fillColor=#ffe6cc;whiteSpace=wrap;" parent="1" vertex="1">
          <mxGeometry x="-489" y="800" width="200" height="50" as="geometry" />
        </mxCell>
        <mxCell id="7bwA_UZl1lktJwLHYLpA-193" value="&lt;span style=&quot;font-size: 20px; font-weight: 700;&quot;&gt;Order_ID&lt;/span&gt;" style="rounded=0;html=1;align=center;verticalAlign=middle;fontFamily=Helvetica;fontSize=12;fontStyle=0;whiteSpace=wrap;fillColor=#e1d5e7;strokeColor=default;" parent="1" vertex="1">
          <mxGeometry x="2750" y="1200" width="200" height="50" as="geometry" />
        </mxCell>
        <mxCell id="7bwA_UZl1lktJwLHYLpA-194" value="&lt;span style=&quot;font-size: 20px; font-weight: 700;&quot;&gt;User_ID&lt;/span&gt;" style="rounded=0;html=1;align=center;verticalAlign=middle;fontFamily=Helvetica;fontSize=12;fontStyle=0;whiteSpace=wrap;fillColor=#e1d5e7;strokeColor=default;" parent="1" vertex="1">
          <mxGeometry x="2660" y="880" width="200" height="50" as="geometry" />
        </mxCell>
        <mxCell id="7bwA_UZl1lktJwLHYLpA-195" value="&lt;span style=&quot;font-size: 20px; font-weight: 700;&quot;&gt;Payment_ID&lt;/span&gt;" style="rounded=0;html=1;align=center;verticalAlign=middle;fontFamily=Helvetica;fontSize=12;fontStyle=0;whiteSpace=wrap;fillColor=#e1d5e7;strokeColor=default;" parent="1" vertex="1">
          <mxGeometry x="2860" y="880" width="200" height="50" as="geometry" />
        </mxCell>
        <mxCell id="7bwA_UZl1lktJwLHYLpA-196" value="&lt;span style=&quot;font-size: 20px; font-weight: 700;&quot;&gt;Estimated_Delivery_Date&lt;/span&gt;" style="rounded=0;html=1;strokeColor=default;align=center;verticalAlign=middle;fontFamily=Helvetica;fontSize=12;fontColor=default;fontStyle=0;fillColor=default;whiteSpace=wrap;" parent="1" vertex="1">
          <mxGeometry x="1880" y="1200" width="270" height="50" as="geometry" />
        </mxCell>
        <mxCell id="7bwA_UZl1lktJwLHYLpA-197" value="&lt;span style=&quot;font-size: 20px; font-weight: 700;&quot;&gt;Category_Name&lt;/span&gt;" style="rounded=0;html=1;strokeColor=default;align=center;verticalAlign=middle;fontFamily=Helvetica;fontSize=12;fontColor=default;fontStyle=0;fillColor=default;whiteSpace=wrap;" parent="1" vertex="1">
          <mxGeometry x="-289" y="800" width="200" height="50" as="geometry" />
        </mxCell>
        <mxCell id="7bwA_UZl1lktJwLHYLpA-198" value="&lt;span style=&quot;font-size: 20px; font-weight: 700;&quot;&gt;Tracking_Number&lt;/span&gt;" style="rounded=0;html=1;strokeColor=default;align=center;verticalAlign=middle;fontFamily=Helvetica;fontSize=12;fontColor=default;fontStyle=0;fillColor=default;whiteSpace=wrap;" parent="1" vertex="1">
          <mxGeometry x="2350" y="1200" width="200" height="50" as="geometry" />
        </mxCell>
        <mxCell id="7bwA_UZl1lktJwLHYLpA-199" value="&lt;span style=&quot;font-size: 20px; font-weight: 700;&quot;&gt;Total_Amount&lt;/span&gt;" style="rounded=0;html=1;strokeColor=default;align=center;verticalAlign=middle;fontFamily=Helvetica;fontSize=12;fontColor=default;fontStyle=0;fillColor=default;whiteSpace=wrap;" parent="1" vertex="1">
          <mxGeometry x="2060" y="880" width="200" height="50" as="geometry" />
        </mxCell>
        <mxCell id="7bwA_UZl1lktJwLHYLpA-200" value="&lt;span style=&quot;font-size: 20px; font-weight: 700;&quot;&gt;Delivery_Status&lt;/span&gt;" style="rounded=0;html=1;strokeColor=default;align=center;verticalAlign=middle;fontFamily=Helvetica;fontSize=12;fontColor=default;fontStyle=0;fillColor=default;whiteSpace=wrap;" parent="1" vertex="1">
          <mxGeometry x="2150" y="1200" width="200" height="50" as="geometry" />
        </mxCell>
        <mxCell id="7bwA_UZl1lktJwLHYLpA-201" value="&lt;span style=&quot;font-size: 20px; font-weight: 700;&quot;&gt;Recipient_Email&lt;/span&gt;" style="rounded=0;html=1;strokeColor=default;align=center;verticalAlign=middle;fontFamily=Helvetica;fontSize=12;fontColor=default;fontStyle=0;fillColor=default;whiteSpace=wrap;" parent="1" vertex="1">
          <mxGeometry x="2280" y="720" width="200" height="50" as="geometry" />
        </mxCell>
        <mxCell id="7bwA_UZl1lktJwLHYLpA-202" value="&lt;span style=&quot;font-size: 20px; font-weight: 700;&quot;&gt;Expiration_Date&lt;/span&gt;" style="rounded=0;html=1;strokeColor=default;align=center;verticalAlign=middle;fontFamily=Helvetica;fontSize=12;fontColor=default;fontStyle=0;fillColor=default;whiteSpace=wrap;" parent="1" vertex="1">
          <mxGeometry x="2480" y="720" width="200" height="50" as="geometry" />
        </mxCell>
        <mxCell id="7bwA_UZl1lktJwLHYLpA-203" value="&lt;span style=&quot;font-size: 20px; font-weight: 700;&quot;&gt;Generated_At&lt;/span&gt;" style="rounded=0;html=1;strokeColor=default;align=center;verticalAlign=middle;fontFamily=Helvetica;fontSize=12;fontColor=default;fontStyle=0;fillColor=default;whiteSpace=wrap;" parent="1" vertex="1">
          <mxGeometry x="2680" y="720" width="200" height="50" as="geometry" />
        </mxCell>
        <mxCell id="7bwA_UZl1lktJwLHYLpA-205" value="&lt;div&gt;&lt;span style=&quot;font-size: 20px; font-weight: 700;&quot;&gt;Used_Status&lt;/span&gt;&lt;/div&gt;" style="rounded=0;html=1;strokeColor=default;align=center;verticalAlign=middle;fontFamily=Helvetica;fontSize=12;fontColor=default;fontStyle=0;fillColor=default;whiteSpace=wrap;" parent="1" vertex="1">
          <mxGeometry x="2880" y="720" width="200" height="50" as="geometry" />
        </mxCell>
        <mxCell id="7bwA_UZl1lktJwLHYLpA-206" value="" style="rounded=0;whiteSpace=wrap;html=1;" parent="1" vertex="1">
          <mxGeometry x="-488" y="1440" width="840" height="50" as="geometry" />
        </mxCell>
        <mxCell id="7bwA_UZl1lktJwLHYLpA-207" value="" style="rounded=0;whiteSpace=wrap;html=1;" parent="1" vertex="1">
          <mxGeometry x="-490" y="1280" width="1000" height="50" as="geometry" />
        </mxCell>
        <mxCell id="7bwA_UZl1lktJwLHYLpA-209" value="&lt;span style=&quot;font-size: 20px; font-weight: 700;&quot;&gt;Is_Discount_Used&lt;/span&gt;" style="rounded=0;html=1;strokeColor=default;align=center;verticalAlign=middle;fontFamily=Helvetica;fontSize=12;fontColor=default;fontStyle=0;fillColor=default;whiteSpace=wrap;" parent="1" vertex="1">
          <mxGeometry x="-48" y="1440" width="200" height="50" as="geometry" />
        </mxCell>
        <mxCell id="7bwA_UZl1lktJwLHYLpA-210" value="&lt;span style=&quot;font-size: 20px; font-weight: 700;&quot;&gt;Transaction_Date&lt;/span&gt;" style="rounded=0;html=1;strokeColor=default;align=center;verticalAlign=middle;fontFamily=Helvetica;fontSize=12;fontColor=default;fontStyle=0;fillColor=default;whiteSpace=wrap;" parent="1" vertex="1">
          <mxGeometry x="-290" y="1280" width="200" height="50" as="geometry" />
        </mxCell>
        <mxCell id="7bwA_UZl1lktJwLHYLpA-211" value="&lt;span style=&quot;font-size: 20px; font-weight: 700;&quot;&gt;Transaction_ID&lt;/span&gt;" style="rounded=0;html=1;strokeColor=default;align=center;verticalAlign=middle;fontFamily=Helvetica;fontSize=12;fontStyle=4;fillColor=#ffe6cc;whiteSpace=wrap;" parent="1" vertex="1">
          <mxGeometry x="-490" y="1280" width="200" height="50" as="geometry" />
        </mxCell>
        <mxCell id="7bwA_UZl1lktJwLHYLpA-212" value="&lt;span style=&quot;font-size: 20px; font-weight: 700;&quot;&gt;Applied_On_Order_ID&lt;/span&gt;" style="rounded=0;html=1;align=center;verticalAlign=middle;fontFamily=Helvetica;fontSize=12;fontStyle=0;whiteSpace=wrap;fillColor=#e1d5e7;strokeColor=default;" parent="1" vertex="1">
          <mxGeometry x="-288" y="1440" width="240" height="50" as="geometry" />
        </mxCell>
        <mxCell id="7bwA_UZl1lktJwLHYLpA-354" style="edgeStyle=none;shape=connector;rounded=0;orthogonalLoop=1;jettySize=auto;html=1;strokeColor=default;strokeWidth=3;align=center;verticalAlign=middle;fontFamily=Helvetica;fontSize=12;fontColor=default;fontStyle=0;labelBackgroundColor=default;endArrow=none;" parent="1" source="7bwA_UZl1lktJwLHYLpA-213" edge="1">
          <mxGeometry relative="1" as="geometry">
            <mxPoint x="-388" y="1360" as="targetPoint" />
          </mxGeometry>
        </mxCell>
        <mxCell id="7bwA_UZl1lktJwLHYLpA-213" value="&lt;span style=&quot;font-size: 20px; font-weight: 700;&quot;&gt;Customer_ID&lt;/span&gt;" style="rounded=0;html=1;align=center;verticalAlign=middle;fontFamily=Helvetica;fontSize=12;fontStyle=0;whiteSpace=wrap;fillColor=#e1d5e7;strokeColor=default;" parent="1" vertex="1">
          <mxGeometry x="-488" y="1440" width="200" height="50" as="geometry" />
        </mxCell>
        <mxCell id="7bwA_UZl1lktJwLHYLpA-214" value="&lt;span style=&quot;font-size: 20px; font-weight: 700;&quot;&gt;Discount_Amount&lt;/span&gt;" style="rounded=0;html=1;strokeColor=default;align=center;verticalAlign=middle;fontFamily=Helvetica;fontSize=12;fontColor=default;fontStyle=0;fillColor=default;whiteSpace=wrap;" parent="1" vertex="1">
          <mxGeometry x="152" y="1440" width="200" height="50" as="geometry" />
        </mxCell>
        <mxCell id="7bwA_UZl1lktJwLHYLpA-215" value="&lt;span style=&quot;font-size: 20px; font-weight: 700;&quot;&gt;Amount_Used&lt;/span&gt;" style="rounded=0;html=1;strokeColor=default;align=center;verticalAlign=middle;fontFamily=Helvetica;fontSize=12;fontColor=default;fontStyle=0;fillColor=default;whiteSpace=wrap;" parent="1" vertex="1">
          <mxGeometry x="-90" y="1280" width="200" height="50" as="geometry" />
        </mxCell>
        <mxCell id="7bwA_UZl1lktJwLHYLpA-276" style="edgeStyle=orthogonalEdgeStyle;rounded=0;orthogonalLoop=1;jettySize=auto;html=1;exitX=0.5;exitY=1;exitDx=0;exitDy=0;entryX=0.25;entryY=0;entryDx=0;entryDy=0;fontFamily=Helvetica;fontSize=12;fontColor=default;fontStyle=0;strokeWidth=3;" parent="1" source="7bwA_UZl1lktJwLHYLpA-220" target="7bwA_UZl1lktJwLHYLpA-144" edge="1">
          <mxGeometry relative="1" as="geometry" />
        </mxCell>
        <mxCell id="7bwA_UZl1lktJwLHYLpA-220" value="&lt;span style=&quot;font-size: 20px; font-weight: 700;&quot;&gt;Rider_ID&lt;/span&gt;" style="rounded=0;html=1;align=center;verticalAlign=middle;fontFamily=Helvetica;fontSize=12;fontStyle=0;whiteSpace=wrap;fillColor=#e1d5e7;strokeColor=default;" parent="1" vertex="1">
          <mxGeometry x="2550" y="1200" width="200" height="50" as="geometry" />
        </mxCell>
        <mxCell id="7bwA_UZl1lktJwLHYLpA-222" value="" style="rounded=0;whiteSpace=wrap;html=1;" parent="1" vertex="1">
          <mxGeometry x="1570" y="560" width="1600" height="50" as="geometry" />
        </mxCell>
        <mxCell id="7bwA_UZl1lktJwLHYLpA-223" value="&lt;span style=&quot;font-size: 20px; font-weight: 700;&quot;&gt;Product_Name&lt;/span&gt;" style="rounded=0;html=1;strokeColor=default;align=center;verticalAlign=middle;fontFamily=Helvetica;fontSize=12;fontColor=default;fontStyle=0;fillColor=default;whiteSpace=wrap;" parent="1" vertex="1">
          <mxGeometry x="1770" y="560" width="200" height="50" as="geometry" />
        </mxCell>
        <mxCell id="7bwA_UZl1lktJwLHYLpA-224" value="&lt;u style=&quot;font-size: 20px; font-weight: 700;&quot;&gt;Product_ID&lt;/u&gt;" style="rounded=0;html=1;strokeColor=default;align=center;verticalAlign=middle;fontFamily=Helvetica;fontSize=12;fontStyle=4;fillColor=#ffe6cc;whiteSpace=wrap;" parent="1" vertex="1">
          <mxGeometry x="1570" y="560" width="200" height="50" as="geometry" />
        </mxCell>
        <mxCell id="7bwA_UZl1lktJwLHYLpA-225" value="&lt;span style=&quot;font-size: 20px; font-weight: 700;&quot;&gt;Category_ID&lt;/span&gt;" style="rounded=0;html=1;align=center;verticalAlign=middle;fontFamily=Helvetica;fontSize=12;fontStyle=0;whiteSpace=wrap;fillColor=#e1d5e7;strokeColor=default;" parent="1" vertex="1">
          <mxGeometry x="2970" y="560" width="200" height="50" as="geometry" />
        </mxCell>
        <mxCell id="7bwA_UZl1lktJwLHYLpA-226" value="&lt;span style=&quot;font-size: 20px; font-weight: 700;&quot;&gt;Product_Price&lt;/span&gt;" style="rounded=0;html=1;strokeColor=default;align=center;verticalAlign=middle;fontFamily=Helvetica;fontSize=12;fontColor=default;fontStyle=0;fillColor=default;whiteSpace=wrap;" parent="1" vertex="1">
          <mxGeometry x="1970" y="560" width="200" height="50" as="geometry" />
        </mxCell>
        <mxCell id="7bwA_UZl1lktJwLHYLpA-227" value="&lt;span style=&quot;font-size: 20px; font-weight: 700;&quot;&gt;Description&lt;/span&gt;" style="rounded=0;html=1;strokeColor=default;align=center;verticalAlign=middle;fontFamily=Helvetica;fontSize=12;fontColor=default;fontStyle=0;fillColor=default;whiteSpace=wrap;" parent="1" vertex="1">
          <mxGeometry x="2170" y="560" width="200" height="50" as="geometry" />
        </mxCell>
        <mxCell id="7bwA_UZl1lktJwLHYLpA-228" value="&lt;span style=&quot;font-size: 20px; font-weight: 700;&quot;&gt;Image&lt;/span&gt;" style="rounded=0;html=1;strokeColor=default;align=center;verticalAlign=middle;fontFamily=Helvetica;fontSize=12;fontColor=default;fontStyle=0;fillColor=default;whiteSpace=wrap;" parent="1" vertex="1">
          <mxGeometry x="2370" y="560" width="200" height="50" as="geometry" />
        </mxCell>
        <mxCell id="7bwA_UZl1lktJwLHYLpA-229" value="&lt;span style=&quot;font-size: 20px; font-weight: 700;&quot;&gt;Stock_Quantity&lt;/span&gt;" style="rounded=0;html=1;strokeColor=default;align=center;verticalAlign=middle;fontFamily=Helvetica;fontSize=12;fontColor=default;fontStyle=0;fillColor=default;whiteSpace=wrap;" parent="1" vertex="1">
          <mxGeometry x="2570" y="560" width="200" height="50" as="geometry" />
        </mxCell>
        <mxCell id="7bwA_UZl1lktJwLHYLpA-230" value="&lt;span style=&quot;font-size: 20px; font-weight: 700;&quot;&gt;Is_Active&lt;/span&gt;" style="rounded=0;html=1;strokeColor=default;align=center;verticalAlign=middle;fontFamily=Helvetica;fontSize=12;fontColor=default;fontStyle=0;fillColor=default;whiteSpace=wrap;" parent="1" vertex="1">
          <mxGeometry x="2770" y="560" width="200" height="50" as="geometry" />
        </mxCell>
        <mxCell id="7bwA_UZl1lktJwLHYLpA-231" value="&lt;span style=&quot;font-size: 20px; font-weight: 700;&quot;&gt;Quantity&lt;/span&gt;" style="rounded=0;html=1;strokeColor=default;align=center;verticalAlign=middle;fontFamily=Helvetica;fontSize=12;fontColor=default;fontStyle=0;fillColor=default;whiteSpace=wrap;" parent="1" vertex="1">
          <mxGeometry x="-288" y="950" width="200" height="50" as="geometry" />
        </mxCell>
        <mxCell id="7bwA_UZl1lktJwLHYLpA-232" value="&lt;u style=&quot;font-size: 20px; font-weight: 700;&quot;&gt;Order_ID&lt;/u&gt;" style="rounded=0;html=1;strokeColor=default;align=center;verticalAlign=middle;fontFamily=Helvetica;fontSize=12;fontStyle=4;fillColor=#ffe6cc;whiteSpace=wrap;" parent="1" vertex="1">
          <mxGeometry x="1660" y="880" width="200" height="50" as="geometry" />
        </mxCell>
        <mxCell id="7bwA_UZl1lktJwLHYLpA-350" style="edgeStyle=none;shape=connector;rounded=0;orthogonalLoop=1;jettySize=auto;html=1;strokeColor=default;strokeWidth=3;align=center;verticalAlign=middle;fontFamily=Helvetica;fontSize=12;fontColor=default;fontStyle=0;labelBackgroundColor=default;endArrow=none;" parent="1" source="7bwA_UZl1lktJwLHYLpA-233" edge="1">
          <mxGeometry relative="1" as="geometry">
            <mxPoint x="12" y="1110" as="targetPoint" />
          </mxGeometry>
        </mxCell>
        <mxCell id="7bwA_UZl1lktJwLHYLpA-233" value="&lt;span style=&quot;font-size: 20px; font-weight: 700;&quot;&gt;Cart_ID&lt;/span&gt;" style="rounded=0;html=1;align=center;verticalAlign=middle;fontFamily=Helvetica;fontSize=12;fontStyle=0;whiteSpace=wrap;fillColor=#e1d5e7;strokeColor=default;" parent="1" vertex="1">
          <mxGeometry x="-88" y="950" width="200" height="50" as="geometry" />
        </mxCell>
        <mxCell id="7bwA_UZl1lktJwLHYLpA-234" value="&lt;span style=&quot;font-size: 20px; font-weight: 700;&quot;&gt;Product_ID&lt;/span&gt;" style="rounded=0;html=1;align=center;verticalAlign=middle;fontFamily=Helvetica;fontSize=12;fontStyle=0;whiteSpace=wrap;fillColor=#e1d5e7;strokeColor=default;" parent="1" vertex="1">
          <mxGeometry x="112" y="950" width="200" height="50" as="geometry" />
        </mxCell>
        <mxCell id="7bwA_UZl1lktJwLHYLpA-235" value="&lt;u style=&quot;font-size: 20px; font-weight: 700;&quot;&gt;Cart_Item_ID&lt;/u&gt;" style="rounded=0;html=1;strokeColor=default;align=center;verticalAlign=middle;fontFamily=Helvetica;fontSize=12;fontStyle=4;fillColor=#ffe6cc;whiteSpace=wrap;" parent="1" vertex="1">
          <mxGeometry x="-488" y="950" width="200" height="50" as="geometry" />
        </mxCell>
        <mxCell id="7bwA_UZl1lktJwLHYLpA-237" value="&lt;span style=&quot;font-size: 20px; font-weight: 700;&quot;&gt;Status&lt;/span&gt;" style="rounded=0;html=1;strokeColor=default;align=center;verticalAlign=middle;fontFamily=Helvetica;fontSize=12;fontColor=default;fontStyle=0;fillColor=default;whiteSpace=wrap;" parent="1" vertex="1">
          <mxGeometry x="2260" y="880" width="200" height="50" as="geometry" />
        </mxCell>
        <mxCell id="7bwA_UZl1lktJwLHYLpA-238" value="&lt;span style=&quot;font-size: 20px; font-weight: 700;&quot;&gt;Email&lt;/span&gt;" style="rounded=0;html=1;strokeColor=default;align=center;verticalAlign=middle;fontFamily=Helvetica;fontSize=12;fontColor=default;fontStyle=0;fillColor=default;whiteSpace=wrap;" parent="1" vertex="1">
          <mxGeometry x="2460" y="880" width="200" height="50" as="geometry" />
        </mxCell>
        <mxCell id="7bwA_UZl1lktJwLHYLpA-240" value="" style="rounded=0;whiteSpace=wrap;html=1;" parent="1" vertex="1">
          <mxGeometry x="1761" y="1040" width="400" height="50" as="geometry" />
        </mxCell>
        <mxCell id="7bwA_UZl1lktJwLHYLpA-241" value="&lt;span style=&quot;font-size: 20px; font-weight: 700;&quot;&gt;Cart_ID&lt;/span&gt;" style="rounded=0;html=1;strokeColor=default;align=center;verticalAlign=middle;fontFamily=Helvetica;fontSize=12;fontStyle=4;fillColor=#ffe6cc;whiteSpace=wrap;" parent="1" vertex="1">
          <mxGeometry x="1761" y="1040" width="200" height="50" as="geometry" />
        </mxCell>
        <mxCell id="7bwA_UZl1lktJwLHYLpA-243" value="&lt;span style=&quot;font-size: 20px; font-weight: 700;&quot;&gt;Customer_ID&lt;/span&gt;" style="rounded=0;html=1;align=center;verticalAlign=middle;fontFamily=Helvetica;fontSize=12;fontStyle=0;whiteSpace=wrap;fillColor=#e1d5e7;strokeColor=default;" parent="1" vertex="1">
          <mxGeometry x="1961" y="1040" width="200" height="50" as="geometry" />
        </mxCell>
        <mxCell id="7bwA_UZl1lktJwLHYLpA-298" style="edgeStyle=none;shape=connector;rounded=0;orthogonalLoop=1;jettySize=auto;html=1;exitX=0.5;exitY=0;exitDx=0;exitDy=0;strokeColor=default;strokeWidth=3;align=center;verticalAlign=middle;fontFamily=Helvetica;fontSize=12;fontColor=default;fontStyle=0;labelBackgroundColor=default;endArrow=none;" parent="1" source="7bwA_UZl1lktJwLHYLpA-245" edge="1">
          <mxGeometry relative="1" as="geometry">
            <mxPoint x="410" y="1210" as="targetPoint" />
          </mxGeometry>
        </mxCell>
        <mxCell id="7bwA_UZl1lktJwLHYLpA-245" value="&lt;span style=&quot;font-size: 20px; font-weight: 700;&quot;&gt;Gift_card_ID&lt;/span&gt;" style="rounded=0;html=1;align=center;verticalAlign=middle;fontFamily=Helvetica;fontSize=12;fontStyle=0;whiteSpace=wrap;fillColor=#e1d5e7;strokeColor=default;" parent="1" vertex="1">
          <mxGeometry x="310" y="1280" width="200" height="50" as="geometry" />
        </mxCell>
        <mxCell id="7bwA_UZl1lktJwLHYLpA-309" style="edgeStyle=none;shape=connector;rounded=0;orthogonalLoop=1;jettySize=auto;html=1;exitX=0.5;exitY=0;exitDx=0;exitDy=0;strokeColor=default;strokeWidth=3;align=center;verticalAlign=middle;fontFamily=Helvetica;fontSize=12;fontColor=default;fontStyle=0;labelBackgroundColor=default;endArrow=none;" parent="1" source="7bwA_UZl1lktJwLHYLpA-248" edge="1">
          <mxGeometry relative="1" as="geometry">
            <mxPoint x="210" y="1230" as="targetPoint" />
          </mxGeometry>
        </mxCell>
        <mxCell id="7bwA_UZl1lktJwLHYLpA-248" value="&lt;span style=&quot;font-size: 20px; font-weight: 700;&quot;&gt;Order_ID&lt;/span&gt;" style="rounded=0;html=1;align=center;verticalAlign=middle;fontFamily=Helvetica;fontSize=12;fontStyle=0;whiteSpace=wrap;fillColor=#e1d5e7;strokeColor=default;" parent="1" vertex="1">
          <mxGeometry x="110" y="1280" width="200" height="50" as="geometry" />
        </mxCell>
        <mxCell id="7bwA_UZl1lktJwLHYLpA-257" value="" style="rounded=0;whiteSpace=wrap;html=1;" parent="1" vertex="1">
          <mxGeometry x="-490" y="1119" width="1000" height="50" as="geometry" />
        </mxCell>
        <mxCell id="7bwA_UZl1lktJwLHYLpA-258" value="&lt;span style=&quot;font-size: 20px; font-weight: 700;&quot;&gt;Payment_Method&lt;/span&gt;" style="rounded=0;html=1;strokeColor=default;align=center;verticalAlign=middle;fontFamily=Helvetica;fontSize=12;fontColor=default;fontStyle=0;fillColor=default;whiteSpace=wrap;" parent="1" vertex="1">
          <mxGeometry x="-290" y="1119" width="200" height="50" as="geometry" />
        </mxCell>
        <mxCell id="7bwA_UZl1lktJwLHYLpA-259" value="&lt;span style=&quot;font-size: 20px; font-weight: 700;&quot;&gt;Transaction_ID&lt;/span&gt;" style="rounded=0;html=1;align=center;verticalAlign=middle;fontFamily=Helvetica;fontSize=12;fontStyle=0;whiteSpace=wrap;fillColor=#e1d5e7;strokeColor=default;" parent="1" vertex="1">
          <mxGeometry x="110" y="1119" width="200" height="51" as="geometry" />
        </mxCell>
        <mxCell id="7bwA_UZl1lktJwLHYLpA-275" style="edgeStyle=orthogonalEdgeStyle;rounded=0;orthogonalLoop=1;jettySize=auto;html=1;exitX=0.5;exitY=0;exitDx=0;exitDy=0;entryX=0.75;entryY=0;entryDx=0;entryDy=0;fontFamily=Helvetica;fontSize=12;fontColor=default;fontStyle=0;strokeWidth=3;" parent="1" source="7bwA_UZl1lktJwLHYLpA-260" target="7bwA_UZl1lktJwLHYLpA-232" edge="1">
          <mxGeometry relative="1" as="geometry" />
        </mxCell>
        <mxCell id="7bwA_UZl1lktJwLHYLpA-260" value="&lt;span style=&quot;font-size: 20px; font-weight: 700;&quot;&gt;Order_ID&lt;/span&gt;" style="rounded=0;html=1;align=center;verticalAlign=middle;fontFamily=Helvetica;fontSize=12;fontStyle=0;whiteSpace=wrap;fillColor=#e1d5e7;strokeColor=default;" parent="1" vertex="1">
          <mxGeometry x="310" y="1119" width="200" height="50" as="geometry" />
        </mxCell>
        <mxCell id="7bwA_UZl1lktJwLHYLpA-261" value="&lt;span style=&quot;font-size: 20px; font-weight: 700;&quot;&gt;Amount_Paid&lt;/span&gt;" style="rounded=0;html=1;strokeColor=default;align=center;verticalAlign=middle;fontFamily=Helvetica;fontSize=12;fontColor=default;fontStyle=0;fillColor=default;whiteSpace=wrap;" parent="1" vertex="1">
          <mxGeometry x="-90" y="1119" width="200" height="50" as="geometry" />
        </mxCell>
        <mxCell id="7bwA_UZl1lktJwLHYLpA-369" style="edgeStyle=none;shape=connector;rounded=0;orthogonalLoop=1;jettySize=auto;html=1;exitX=0.5;exitY=1;exitDx=0;exitDy=0;strokeColor=default;strokeWidth=3;align=center;verticalAlign=middle;fontFamily=Helvetica;fontSize=12;fontColor=default;fontStyle=0;labelBackgroundColor=default;endArrow=none;" parent="1" source="7bwA_UZl1lktJwLHYLpA-262" edge="1">
          <mxGeometry relative="1" as="geometry">
            <mxPoint x="-390" y="1250" as="targetPoint" />
          </mxGeometry>
        </mxCell>
        <mxCell id="7bwA_UZl1lktJwLHYLpA-262" value="&lt;span style=&quot;font-size: 20px;&quot;&gt;&lt;font face=&quot;Helvetica&quot;&gt;Payment_ID&lt;/font&gt;&lt;/span&gt;" style="rounded=0;html=1;strokeColor=default;align=center;verticalAlign=middle;fontFamily=Helvetica;fontSize=12;fontStyle=5;fillColor=#ffe6cc;whiteSpace=wrap;" parent="1" vertex="1">
          <mxGeometry x="-490" y="1119" width="200" height="50" as="geometry" />
        </mxCell>
        <mxCell id="7bwA_UZl1lktJwLHYLpA-266" value="&lt;span style=&quot;font-size: 20px; font-weight: 700;&quot;&gt;Primary Key&lt;/span&gt;" style="rounded=0;html=1;strokeColor=default;align=center;verticalAlign=middle;fontFamily=Helvetica;fontSize=12;fontStyle=4;fillColor=#ffe6cc;whiteSpace=wrap;" parent="1" vertex="1">
          <mxGeometry x="2000" y="-200" width="200" height="50" as="geometry" />
        </mxCell>
        <mxCell id="7bwA_UZl1lktJwLHYLpA-267" value="&lt;span style=&quot;font-size: 20px; font-weight: 700;&quot;&gt;Foreign Key&lt;/span&gt;" style="rounded=0;html=1;align=center;verticalAlign=middle;fontFamily=Helvetica;fontSize=12;fontStyle=0;whiteSpace=wrap;fillColor=#e1d5e7;strokeColor=default;" parent="1" vertex="1">
          <mxGeometry x="2460" y="-200" width="200" height="50" as="geometry" />
        </mxCell>
        <mxCell id="7bwA_UZl1lktJwLHYLpA-278" value="" style="endArrow=none;html=1;rounded=0;fontFamily=Helvetica;fontSize=12;fontColor=default;fontStyle=0;strokeWidth=3;" parent="1" edge="1">
          <mxGeometry width="50" height="50" relative="1" as="geometry">
            <mxPoint x="1300" y="1150" as="sourcePoint" />
            <mxPoint x="1300" y="-54" as="targetPoint" />
          </mxGeometry>
        </mxCell>
        <mxCell id="7bwA_UZl1lktJwLHYLpA-280" value="" style="endArrow=none;html=1;rounded=0;fontFamily=Helvetica;fontSize=12;fontColor=default;fontStyle=0;strokeWidth=3;" parent="1" edge="1">
          <mxGeometry width="50" height="50" relative="1" as="geometry">
            <mxPoint x="2060" y="1150" as="sourcePoint" />
            <mxPoint x="1300" y="1150" as="targetPoint" />
          </mxGeometry>
        </mxCell>
        <mxCell id="7bwA_UZl1lktJwLHYLpA-282" value="" style="endArrow=none;html=1;rounded=0;fontFamily=Helvetica;fontSize=12;fontColor=default;fontStyle=0;exitX=0.5;exitY=1;exitDx=0;exitDy=0;strokeWidth=3;" parent="1" source="7bwA_UZl1lktJwLHYLpA-243" edge="1">
          <mxGeometry width="50" height="50" relative="1" as="geometry">
            <mxPoint x="850" y="500" as="sourcePoint" />
            <mxPoint x="2061" y="1150" as="targetPoint" />
          </mxGeometry>
        </mxCell>
        <mxCell id="7bwA_UZl1lktJwLHYLpA-285" value="" style="endArrow=none;html=1;rounded=0;fontFamily=Helvetica;fontSize=12;fontColor=default;fontStyle=0;strokeWidth=3;" parent="1" edge="1">
          <mxGeometry width="50" height="50" relative="1" as="geometry">
            <mxPoint x="1300" y="-52" as="sourcePoint" />
            <mxPoint x="1820" y="-52" as="targetPoint" />
          </mxGeometry>
        </mxCell>
        <mxCell id="7bwA_UZl1lktJwLHYLpA-290" value="" style="endArrow=none;html=1;rounded=0;fontFamily=Helvetica;fontSize=12;fontColor=default;fontStyle=0;exitX=0.5;exitY=0;exitDx=0;exitDy=0;strokeWidth=3;" parent="1" source="7bwA_UZl1lktJwLHYLpA-234" edge="1">
          <mxGeometry width="50" height="50" relative="1" as="geometry">
            <mxPoint x="1220" y="760" as="sourcePoint" />
            <mxPoint x="212" y="830" as="targetPoint" />
          </mxGeometry>
        </mxCell>
        <mxCell id="7bwA_UZl1lktJwLHYLpA-291" value="" style="endArrow=none;html=1;rounded=0;fontFamily=Helvetica;fontSize=12;fontColor=default;fontStyle=0;strokeWidth=3;" parent="1" edge="1">
          <mxGeometry width="50" height="50" relative="1" as="geometry">
            <mxPoint x="1210" y="830" as="sourcePoint" />
            <mxPoint x="210" y="830" as="targetPoint" />
          </mxGeometry>
        </mxCell>
        <mxCell id="7bwA_UZl1lktJwLHYLpA-292" value="" style="endArrow=none;html=1;rounded=0;fontFamily=Helvetica;fontSize=12;fontColor=default;fontStyle=0;strokeWidth=3;" parent="1" edge="1">
          <mxGeometry width="50" height="50" relative="1" as="geometry">
            <mxPoint x="1210" y="830" as="sourcePoint" />
            <mxPoint x="1210" y="470" as="targetPoint" />
          </mxGeometry>
        </mxCell>
        <mxCell id="7bwA_UZl1lktJwLHYLpA-293" value="" style="endArrow=none;html=1;rounded=0;fontFamily=Helvetica;fontSize=12;fontColor=default;fontStyle=0;strokeWidth=3;" parent="1" edge="1">
          <mxGeometry width="50" height="50" relative="1" as="geometry">
            <mxPoint x="1670" y="470" as="sourcePoint" />
            <mxPoint x="1210" y="470" as="targetPoint" />
          </mxGeometry>
        </mxCell>
        <mxCell id="7bwA_UZl1lktJwLHYLpA-294" value="" style="endArrow=classic;html=1;rounded=0;fontFamily=Helvetica;fontSize=12;fontColor=default;fontStyle=0;entryX=0.5;entryY=0;entryDx=0;entryDy=0;strokeWidth=3;" parent="1" target="7bwA_UZl1lktJwLHYLpA-224" edge="1">
          <mxGeometry width="50" height="50" relative="1" as="geometry">
            <mxPoint x="1670" y="470" as="sourcePoint" />
            <mxPoint x="1270" y="710" as="targetPoint" />
          </mxGeometry>
        </mxCell>
        <mxCell id="7bwA_UZl1lktJwLHYLpA-297" value="" style="endArrow=none;html=1;rounded=0;strokeColor=default;strokeWidth=3;align=center;verticalAlign=middle;fontFamily=Helvetica;fontSize=12;fontColor=default;fontStyle=0;labelBackgroundColor=default;" parent="1" edge="1">
          <mxGeometry width="50" height="50" relative="1" as="geometry">
            <mxPoint x="1040" y="640" as="sourcePoint" />
            <mxPoint x="1590" y="640" as="targetPoint" />
          </mxGeometry>
        </mxCell>
        <mxCell id="7bwA_UZl1lktJwLHYLpA-299" value="" style="endArrow=none;html=1;rounded=0;strokeColor=default;strokeWidth=3;align=center;verticalAlign=middle;fontFamily=Helvetica;fontSize=12;fontColor=default;fontStyle=0;labelBackgroundColor=default;" parent="1" edge="1">
          <mxGeometry width="50" height="50" relative="1" as="geometry">
            <mxPoint x="410" y="1210" as="sourcePoint" />
            <mxPoint x="1040" y="1210" as="targetPoint" />
          </mxGeometry>
        </mxCell>
        <mxCell id="7bwA_UZl1lktJwLHYLpA-300" value="" style="endArrow=none;html=1;rounded=0;strokeColor=default;strokeWidth=3;align=center;verticalAlign=middle;fontFamily=Helvetica;fontSize=12;fontColor=default;fontStyle=0;labelBackgroundColor=default;" parent="1" edge="1">
          <mxGeometry width="50" height="50" relative="1" as="geometry">
            <mxPoint x="1040" y="1210" as="sourcePoint" />
            <mxPoint x="1040" y="640" as="targetPoint" />
          </mxGeometry>
        </mxCell>
        <mxCell id="7bwA_UZl1lktJwLHYLpA-301" value="" style="endArrow=classic;html=1;rounded=0;strokeColor=default;strokeWidth=3;align=center;verticalAlign=middle;fontFamily=Helvetica;fontSize=12;fontColor=default;fontStyle=0;labelBackgroundColor=default;" parent="1" edge="1">
          <mxGeometry width="50" height="50" relative="1" as="geometry">
            <mxPoint x="1590" y="640" as="sourcePoint" />
            <mxPoint x="1590" y="710" as="targetPoint" />
          </mxGeometry>
        </mxCell>
        <mxCell id="7bwA_UZl1lktJwLHYLpA-308" value="&lt;u style=&quot;font-size: 20px; font-weight: 700;&quot;&gt;Rider_ID&lt;/u&gt;" style="rounded=0;html=1;align=center;verticalAlign=middle;fontFamily=Helvetica;fontSize=12;fontStyle=0;whiteSpace=wrap;fillColor=#e1d5e7;strokeColor=default;" parent="1" vertex="1">
          <mxGeometry x="-488" y="480" width="200" height="50" as="geometry" />
        </mxCell>
        <mxCell id="7bwA_UZl1lktJwLHYLpA-311" value="" style="endArrow=none;html=1;rounded=0;strokeColor=default;strokeWidth=3;align=center;verticalAlign=middle;fontFamily=Helvetica;fontSize=12;fontColor=default;fontStyle=0;labelBackgroundColor=default;" parent="1" edge="1">
          <mxGeometry width="50" height="50" relative="1" as="geometry">
            <mxPoint x="212" y="1230" as="sourcePoint" />
            <mxPoint x="980" y="1230" as="targetPoint" />
          </mxGeometry>
        </mxCell>
        <mxCell id="7bwA_UZl1lktJwLHYLpA-312" value="" style="endArrow=none;html=1;rounded=0;strokeColor=default;strokeWidth=3;align=center;verticalAlign=middle;fontFamily=Helvetica;fontSize=12;fontColor=default;fontStyle=0;labelBackgroundColor=default;" parent="1" edge="1">
          <mxGeometry width="50" height="50" relative="1" as="geometry">
            <mxPoint x="980" y="1230" as="sourcePoint" />
            <mxPoint x="1330" y="1230" as="targetPoint" />
          </mxGeometry>
        </mxCell>
        <mxCell id="7bwA_UZl1lktJwLHYLpA-313" value="" style="endArrow=none;html=1;rounded=0;strokeColor=default;strokeWidth=3;align=center;verticalAlign=middle;fontFamily=Helvetica;fontSize=12;fontColor=default;fontStyle=0;labelBackgroundColor=default;" parent="1" edge="1">
          <mxGeometry width="50" height="50" relative="1" as="geometry">
            <mxPoint x="1330" y="1240" as="sourcePoint" />
            <mxPoint x="1330" y="960" as="targetPoint" />
          </mxGeometry>
        </mxCell>
        <mxCell id="7bwA_UZl1lktJwLHYLpA-316" value="" style="endArrow=none;html=1;rounded=0;strokeColor=default;strokeWidth=3;align=center;verticalAlign=middle;fontFamily=Helvetica;fontSize=12;fontColor=default;fontStyle=0;labelBackgroundColor=default;" parent="1" edge="1">
          <mxGeometry width="50" height="50" relative="1" as="geometry">
            <mxPoint x="1330" y="960" as="sourcePoint" />
            <mxPoint x="1790" y="960" as="targetPoint" />
          </mxGeometry>
        </mxCell>
        <mxCell id="7bwA_UZl1lktJwLHYLpA-319" value="" style="endArrow=classic;html=1;rounded=0;strokeColor=default;strokeWidth=3;align=center;verticalAlign=middle;fontFamily=Helvetica;fontSize=12;fontColor=default;fontStyle=0;labelBackgroundColor=default;" parent="1" edge="1">
          <mxGeometry width="50" height="50" relative="1" as="geometry">
            <mxPoint x="1790" y="960" as="sourcePoint" />
            <mxPoint x="1790" y="920" as="targetPoint" />
          </mxGeometry>
        </mxCell>
        <mxCell id="7bwA_UZl1lktJwLHYLpA-321" value="" style="endArrow=none;html=1;rounded=0;strokeColor=default;strokeWidth=3;align=center;verticalAlign=middle;fontFamily=Helvetica;fontSize=12;fontColor=default;fontStyle=0;labelBackgroundColor=default;" parent="1" edge="1">
          <mxGeometry width="50" height="50" relative="1" as="geometry">
            <mxPoint x="-390" y="1040" as="sourcePoint" />
            <mxPoint x="1520" y="1040" as="targetPoint" />
          </mxGeometry>
        </mxCell>
        <mxCell id="7bwA_UZl1lktJwLHYLpA-322" value="" style="endArrow=none;html=1;rounded=0;strokeColor=default;strokeWidth=3;align=center;verticalAlign=middle;fontFamily=Helvetica;fontSize=12;fontColor=default;fontStyle=0;labelBackgroundColor=default;" parent="1" edge="1">
          <mxGeometry width="50" height="50" relative="1" as="geometry">
            <mxPoint x="1520" y="1040" as="sourcePoint" />
            <mxPoint x="1670" y="1040" as="targetPoint" />
          </mxGeometry>
        </mxCell>
        <mxCell id="7bwA_UZl1lktJwLHYLpA-324" value="" style="endArrow=none;html=1;rounded=0;strokeColor=default;strokeWidth=3;align=center;verticalAlign=middle;fontFamily=Helvetica;fontSize=12;fontColor=default;fontStyle=0;labelBackgroundColor=default;" parent="1" edge="1">
          <mxGeometry width="50" height="50" relative="1" as="geometry">
            <mxPoint x="1670" y="1040" as="sourcePoint" />
            <mxPoint x="1670" y="990" as="targetPoint" />
          </mxGeometry>
        </mxCell>
        <mxCell id="7bwA_UZl1lktJwLHYLpA-325" value="" style="endArrow=none;html=1;rounded=0;strokeColor=default;strokeWidth=3;align=center;verticalAlign=middle;fontFamily=Helvetica;fontSize=12;fontColor=default;fontStyle=0;labelBackgroundColor=default;" parent="1" edge="1">
          <mxGeometry width="50" height="50" relative="1" as="geometry">
            <mxPoint x="1670" y="990" as="sourcePoint" />
            <mxPoint x="2930" y="990" as="targetPoint" />
          </mxGeometry>
        </mxCell>
        <mxCell id="7bwA_UZl1lktJwLHYLpA-328" value="" style="endArrow=none;html=1;rounded=0;strokeColor=default;strokeWidth=3;align=center;verticalAlign=middle;fontFamily=Helvetica;fontSize=12;fontColor=default;fontStyle=0;labelBackgroundColor=default;" parent="1" edge="1">
          <mxGeometry width="50" height="50" relative="1" as="geometry">
            <mxPoint x="-390" y="1250" as="sourcePoint" />
            <mxPoint x="1370" y="1250" as="targetPoint" />
          </mxGeometry>
        </mxCell>
        <mxCell id="7bwA_UZl1lktJwLHYLpA-330" value="" style="endArrow=none;html=1;rounded=0;strokeColor=default;strokeWidth=3;align=center;verticalAlign=middle;fontFamily=Helvetica;fontSize=12;fontColor=default;fontStyle=0;labelBackgroundColor=default;" parent="1" edge="1">
          <mxGeometry width="50" height="50" relative="1" as="geometry">
            <mxPoint x="1369" y="1250" as="sourcePoint" />
            <mxPoint x="1369" y="1170" as="targetPoint" />
          </mxGeometry>
        </mxCell>
        <mxCell id="7bwA_UZl1lktJwLHYLpA-331" value="" style="endArrow=none;html=1;rounded=0;strokeColor=default;strokeWidth=3;align=center;verticalAlign=middle;fontFamily=Helvetica;fontSize=12;fontColor=default;fontStyle=0;labelBackgroundColor=default;" parent="1" edge="1">
          <mxGeometry width="50" height="50" relative="1" as="geometry">
            <mxPoint x="1370" y="1170" as="sourcePoint" />
            <mxPoint x="3220" y="1160" as="targetPoint" />
          </mxGeometry>
        </mxCell>
        <mxCell id="7bwA_UZl1lktJwLHYLpA-334" value="" style="endArrow=none;html=1;rounded=0;strokeColor=default;strokeWidth=3;align=center;verticalAlign=middle;fontFamily=Helvetica;fontSize=12;fontColor=default;fontStyle=0;labelBackgroundColor=default;" parent="1" edge="1">
          <mxGeometry width="50" height="50" relative="1" as="geometry">
            <mxPoint x="-390" y="740" as="sourcePoint" />
            <mxPoint x="1240" y="740" as="targetPoint" />
          </mxGeometry>
        </mxCell>
        <mxCell id="7bwA_UZl1lktJwLHYLpA-337" value="" style="endArrow=none;html=1;rounded=0;strokeColor=default;strokeWidth=3;align=center;verticalAlign=middle;fontFamily=Helvetica;fontSize=12;fontColor=default;fontStyle=0;labelBackgroundColor=default;" parent="1" edge="1">
          <mxGeometry width="50" height="50" relative="1" as="geometry">
            <mxPoint x="1240" y="740" as="sourcePoint" />
            <mxPoint x="1420" y="740" as="targetPoint" />
          </mxGeometry>
        </mxCell>
        <mxCell id="7bwA_UZl1lktJwLHYLpA-338" value="" style="endArrow=none;html=1;rounded=0;strokeColor=default;strokeWidth=3;align=center;verticalAlign=middle;fontFamily=Helvetica;fontSize=12;fontColor=default;fontStyle=0;labelBackgroundColor=default;" parent="1" edge="1">
          <mxGeometry width="50" height="50" relative="1" as="geometry">
            <mxPoint x="1420" y="740" as="sourcePoint" />
            <mxPoint x="1420" y="660" as="targetPoint" />
          </mxGeometry>
        </mxCell>
        <mxCell id="7bwA_UZl1lktJwLHYLpA-339" value="" style="endArrow=none;html=1;rounded=0;strokeColor=default;strokeWidth=3;align=center;verticalAlign=middle;fontFamily=Helvetica;fontSize=12;fontColor=default;fontStyle=0;labelBackgroundColor=default;" parent="1" edge="1">
          <mxGeometry width="50" height="50" relative="1" as="geometry">
            <mxPoint x="1420" y="660" as="sourcePoint" />
            <mxPoint x="3080" y="660" as="targetPoint" />
          </mxGeometry>
        </mxCell>
        <mxCell id="7bwA_UZl1lktJwLHYLpA-346" value="" style="endArrow=none;html=1;rounded=0;strokeColor=default;strokeWidth=3;align=center;verticalAlign=middle;fontFamily=Helvetica;fontSize=12;fontColor=default;fontStyle=0;labelBackgroundColor=default;" parent="1" edge="1">
          <mxGeometry width="50" height="50" relative="1" as="geometry">
            <mxPoint x="10" y="1109" as="sourcePoint" />
            <mxPoint x="1860" y="1120" as="targetPoint" />
          </mxGeometry>
        </mxCell>
        <mxCell id="7bwA_UZl1lktJwLHYLpA-353" value="" style="endArrow=classic;html=1;rounded=0;strokeColor=default;strokeWidth=3;align=center;verticalAlign=middle;fontFamily=Helvetica;fontSize=12;fontColor=default;fontStyle=0;labelBackgroundColor=default;entryX=0.5;entryY=1;entryDx=0;entryDy=0;" parent="1" target="7bwA_UZl1lktJwLHYLpA-241" edge="1">
          <mxGeometry width="50" height="50" relative="1" as="geometry">
            <mxPoint x="1861" y="1120" as="sourcePoint" />
            <mxPoint x="1830" y="1440" as="targetPoint" />
            <Array as="points" />
          </mxGeometry>
        </mxCell>
        <mxCell id="7bwA_UZl1lktJwLHYLpA-355" value="" style="endArrow=none;html=1;rounded=0;strokeColor=default;strokeWidth=3;align=center;verticalAlign=middle;fontFamily=Helvetica;fontSize=12;fontColor=default;fontStyle=0;labelBackgroundColor=default;" parent="1" edge="1">
          <mxGeometry width="50" height="50" relative="1" as="geometry">
            <mxPoint x="-390" y="1360" as="sourcePoint" />
            <mxPoint x="1250" y="1360" as="targetPoint" />
          </mxGeometry>
        </mxCell>
        <mxCell id="7bwA_UZl1lktJwLHYLpA-356" value="" style="endArrow=none;html=1;rounded=0;strokeColor=default;strokeWidth=3;align=center;verticalAlign=middle;fontFamily=Helvetica;fontSize=12;fontColor=default;fontStyle=0;labelBackgroundColor=default;" parent="1" edge="1">
          <mxGeometry width="50" height="50" relative="1" as="geometry">
            <mxPoint x="1240" y="1360" as="sourcePoint" />
            <mxPoint x="1240" y="160" as="targetPoint" />
          </mxGeometry>
        </mxCell>
        <mxCell id="7bwA_UZl1lktJwLHYLpA-357" value="" style="endArrow=none;html=1;rounded=0;strokeColor=default;strokeWidth=3;align=center;verticalAlign=middle;fontFamily=Helvetica;fontSize=12;fontColor=default;fontStyle=0;labelBackgroundColor=default;" parent="1" edge="1">
          <mxGeometry width="50" height="50" relative="1" as="geometry">
            <mxPoint x="1860" y="160" as="sourcePoint" />
            <mxPoint x="1240" y="160" as="targetPoint" />
          </mxGeometry>
        </mxCell>
        <mxCell id="7bwA_UZl1lktJwLHYLpA-359" value="" style="endArrow=classic;html=1;rounded=0;strokeColor=default;strokeWidth=3;align=center;verticalAlign=middle;fontFamily=Helvetica;fontSize=12;fontColor=default;fontStyle=0;labelBackgroundColor=default;entryX=0.5;entryY=1;entryDx=0;entryDy=0;" parent="1" target="7bwA_UZl1lktJwLHYLpA-15" edge="1">
          <mxGeometry width="50" height="50" relative="1" as="geometry">
            <mxPoint x="1860" y="130" as="sourcePoint" />
            <mxPoint x="1840" y="150" as="targetPoint" />
            <Array as="points">
              <mxPoint x="1860" y="160" />
            </Array>
          </mxGeometry>
        </mxCell>
        <mxCell id="7bwA_UZl1lktJwLHYLpA-371" value="" style="endArrow=none;html=1;rounded=0;strokeColor=default;strokeWidth=3;align=center;verticalAlign=middle;fontFamily=Helvetica;fontSize=12;fontColor=default;fontStyle=0;labelBackgroundColor=default;entryX=0.5;entryY=1;entryDx=0;entryDy=0;" parent="1" target="7bwA_UZl1lktJwLHYLpA-259" edge="1">
          <mxGeometry width="50" height="50" relative="1" as="geometry">
            <mxPoint x="210" y="1210" as="sourcePoint" />
            <mxPoint x="220" y="1180" as="targetPoint" />
          </mxGeometry>
        </mxCell>
        <mxCell id="7bwA_UZl1lktJwLHYLpA-372" value="" style="endArrow=none;html=1;rounded=0;strokeColor=default;strokeWidth=3;align=center;verticalAlign=middle;fontFamily=Helvetica;fontSize=12;fontColor=default;fontStyle=0;labelBackgroundColor=default;" parent="1" edge="1">
          <mxGeometry width="50" height="50" relative="1" as="geometry">
            <mxPoint x="-340" y="1210" as="sourcePoint" />
            <mxPoint x="210" y="1210" as="targetPoint" />
          </mxGeometry>
        </mxCell>
        <mxCell id="7bwA_UZl1lktJwLHYLpA-376" value="" style="endArrow=classic;html=1;rounded=0;strokeColor=default;strokeWidth=3;align=center;verticalAlign=middle;fontFamily=Helvetica;fontSize=12;fontColor=default;fontStyle=0;labelBackgroundColor=default;entryX=0.75;entryY=0;entryDx=0;entryDy=0;" parent="1" target="7bwA_UZl1lktJwLHYLpA-211" edge="1">
          <mxGeometry width="50" height="50" relative="1" as="geometry">
            <mxPoint x="-340" y="1210" as="sourcePoint" />
            <mxPoint x="-20" y="1079" as="targetPoint" />
          </mxGeometry>
        </mxCell>
        <mxCell id="7bwA_UZl1lktJwLHYLpA-378" value="" style="endArrow=classic;html=1;rounded=0;strokeColor=default;strokeWidth=3;align=center;verticalAlign=middle;fontFamily=Helvetica;fontSize=12;fontColor=default;fontStyle=0;labelBackgroundColor=default;entryX=0.5;entryY=0;entryDx=0;entryDy=0;" parent="1" target="7bwA_UZl1lktJwLHYLpA-262" edge="1">
          <mxGeometry width="50" height="50" relative="1" as="geometry">
            <mxPoint x="-390" y="1040" as="sourcePoint" />
            <mxPoint x="220" y="1030" as="targetPoint" />
          </mxGeometry>
        </mxCell>
        <mxCell id="7bwA_UZl1lktJwLHYLpA-380" value="" style="endArrow=classic;html=1;rounded=0;strokeColor=default;strokeWidth=3;align=center;verticalAlign=middle;fontFamily=Helvetica;fontSize=12;fontColor=default;fontStyle=0;labelBackgroundColor=default;entryX=0.5;entryY=0;entryDx=0;entryDy=0;" parent="1" target="7bwA_UZl1lktJwLHYLpA-192" edge="1">
          <mxGeometry width="50" height="50" relative="1" as="geometry">
            <mxPoint x="-390" y="740" as="sourcePoint" />
            <mxPoint x="220" y="1030" as="targetPoint" />
          </mxGeometry>
        </mxCell>
        <mxCell id="7bwA_UZl1lktJwLHYLpA-381" style="edgeStyle=none;shape=connector;rounded=0;orthogonalLoop=1;jettySize=auto;html=1;entryX=0.5;entryY=1;entryDx=0;entryDy=0;strokeColor=default;strokeWidth=3;align=center;verticalAlign=middle;fontFamily=Helvetica;fontSize=12;fontColor=default;fontStyle=0;labelBackgroundColor=default;endArrow=none;" parent="1" source="7bwA_UZl1lktJwLHYLpA-234" target="7bwA_UZl1lktJwLHYLpA-234" edge="1">
          <mxGeometry relative="1" as="geometry" />
        </mxCell>
        <mxCell id="7bwA_UZl1lktJwLHYLpA-382" value="" style="endArrow=classic;html=1;rounded=0;strokeColor=default;strokeWidth=3;align=center;verticalAlign=middle;fontFamily=Helvetica;fontSize=12;fontColor=default;fontStyle=0;labelBackgroundColor=default;" parent="1" edge="1">
          <mxGeometry width="50" height="50" relative="1" as="geometry">
            <mxPoint x="1820" y="-52" as="sourcePoint" />
            <mxPoint x="1820" y="70" as="targetPoint" />
          </mxGeometry>
        </mxCell>
        <mxCell id="7bwA_UZl1lktJwLHYLpA-385" value="" style="endArrow=none;html=1;rounded=0;strokeColor=default;strokeWidth=3;align=center;verticalAlign=middle;fontFamily=Helvetica;fontSize=12;fontColor=default;fontStyle=0;labelBackgroundColor=default;entryX=0.342;entryY=1.092;entryDx=0;entryDy=0;entryPerimeter=0;" parent="1" target="7bwA_UZl1lktJwLHYLpA-195" edge="1">
          <mxGeometry width="50" height="50" relative="1" as="geometry">
            <mxPoint x="2930" y="990" as="sourcePoint" />
            <mxPoint x="2930" y="940" as="targetPoint" />
            <Array as="points">
              <mxPoint x="2930" y="970" />
            </Array>
          </mxGeometry>
        </mxCell>
        <mxCell id="7bwA_UZl1lktJwLHYLpA-386" value="" style="edgeLabel;html=1;align=center;verticalAlign=middle;resizable=0;points=[];strokeColor=default;fontFamily=Helvetica;fontSize=12;fontColor=default;fontStyle=0;labelBackgroundColor=default;fillColor=default;" parent="7bwA_UZl1lktJwLHYLpA-385" vertex="1" connectable="0">
          <mxGeometry x="0.421" relative="1" as="geometry">
            <mxPoint as="offset" />
          </mxGeometry>
        </mxCell>
        <mxCell id="7bwA_UZl1lktJwLHYLpA-388" value="" style="endArrow=none;html=1;rounded=0;strokeColor=default;strokeWidth=3;align=center;verticalAlign=middle;fontFamily=Helvetica;fontSize=12;fontColor=default;fontStyle=0;labelBackgroundColor=default;" parent="1" edge="1">
          <mxGeometry width="50" height="50" relative="1" as="geometry">
            <mxPoint x="1430" y="910" as="sourcePoint" />
            <mxPoint x="1430" y="1320" as="targetPoint" />
          </mxGeometry>
        </mxCell>
        <mxCell id="7bwA_UZl1lktJwLHYLpA-389" value="" style="endArrow=none;html=1;rounded=0;strokeColor=default;strokeWidth=3;align=center;verticalAlign=middle;fontFamily=Helvetica;fontSize=12;fontColor=default;fontStyle=0;labelBackgroundColor=default;" parent="1" edge="1">
          <mxGeometry width="50" height="50" relative="1" as="geometry">
            <mxPoint x="1430" y="1320" as="sourcePoint" />
            <mxPoint x="2850" y="1320" as="targetPoint" />
          </mxGeometry>
        </mxCell>
        <mxCell id="7bwA_UZl1lktJwLHYLpA-391" value="" style="endArrow=classic;html=1;rounded=0;strokeColor=default;strokeWidth=3;align=center;verticalAlign=middle;fontFamily=Helvetica;fontSize=12;fontColor=default;fontStyle=0;labelBackgroundColor=default;" parent="1" edge="1">
          <mxGeometry width="50" height="50" relative="1" as="geometry">
            <mxPoint x="1430" y="910" as="sourcePoint" />
            <mxPoint x="1650" y="910" as="targetPoint" />
          </mxGeometry>
        </mxCell>
        <mxCell id="7bwA_UZl1lktJwLHYLpA-393" value="" style="endArrow=none;html=1;rounded=0;strokeColor=default;strokeWidth=3;align=center;verticalAlign=middle;fontFamily=Helvetica;fontSize=12;fontColor=default;fontStyle=0;labelBackgroundColor=default;" parent="1" edge="1">
          <mxGeometry width="50" height="50" relative="1" as="geometry">
            <mxPoint x="2850" y="1320" as="sourcePoint" />
            <mxPoint x="2850" y="1260" as="targetPoint" />
          </mxGeometry>
        </mxCell>
        <mxCell id="7bwA_UZl1lktJwLHYLpA-394" value="" style="endArrow=none;html=1;rounded=0;strokeColor=default;strokeWidth=3;align=center;verticalAlign=middle;fontFamily=Helvetica;fontSize=12;fontColor=default;fontStyle=0;labelBackgroundColor=default;" parent="1" edge="1">
          <mxGeometry width="50" height="50" relative="1" as="geometry">
            <mxPoint x="2750" y="830" as="sourcePoint" />
            <mxPoint x="2750" y="870" as="targetPoint" />
          </mxGeometry>
        </mxCell>
        <mxCell id="7bwA_UZl1lktJwLHYLpA-395" value="" style="endArrow=none;html=1;rounded=0;strokeColor=default;strokeWidth=3;align=center;verticalAlign=middle;fontFamily=Helvetica;fontSize=12;fontColor=default;fontStyle=0;labelBackgroundColor=default;" parent="1" edge="1">
          <mxGeometry width="50" height="50" relative="1" as="geometry">
            <mxPoint x="1360" y="830" as="sourcePoint" />
            <mxPoint x="2750" y="830" as="targetPoint" />
          </mxGeometry>
        </mxCell>
        <mxCell id="7bwA_UZl1lktJwLHYLpA-396" value="" style="endArrow=none;html=1;rounded=0;strokeColor=default;strokeWidth=3;align=center;verticalAlign=middle;fontFamily=Helvetica;fontSize=12;fontColor=default;fontStyle=0;labelBackgroundColor=default;" parent="1" edge="1">
          <mxGeometry width="50" height="50" relative="1" as="geometry">
            <mxPoint x="1360" y="830" as="sourcePoint" />
            <mxPoint x="1360" y="280" as="targetPoint" />
          </mxGeometry>
        </mxCell>
        <mxCell id="7bwA_UZl1lktJwLHYLpA-397" value="" style="endArrow=classic;html=1;rounded=0;strokeColor=default;strokeWidth=3;align=center;verticalAlign=middle;fontFamily=Helvetica;fontSize=12;fontColor=default;fontStyle=0;labelBackgroundColor=default;" parent="1" edge="1">
          <mxGeometry width="50" height="50" relative="1" as="geometry">
            <mxPoint x="1360" y="280" as="sourcePoint" />
            <mxPoint x="1740" y="280" as="targetPoint" />
          </mxGeometry>
        </mxCell>
        <mxCell id="7bwA_UZl1lktJwLHYLpA-399" value="" style="endArrow=none;html=1;rounded=0;strokeColor=default;strokeWidth=3;align=center;verticalAlign=middle;fontFamily=Helvetica;fontSize=12;fontColor=default;fontStyle=0;labelBackgroundColor=default;" parent="1" edge="1">
          <mxGeometry width="50" height="50" relative="1" as="geometry">
            <mxPoint x="1830" y="320" as="sourcePoint" />
            <mxPoint x="2660" y="320" as="targetPoint" />
          </mxGeometry>
        </mxCell>
        <mxCell id="7bwA_UZl1lktJwLHYLpA-400" value="" style="endArrow=classic;html=1;rounded=0;strokeColor=default;strokeWidth=3;align=center;verticalAlign=middle;fontFamily=Helvetica;fontSize=12;fontColor=default;fontStyle=0;labelBackgroundColor=default;" parent="1" edge="1">
          <mxGeometry width="50" height="50" relative="1" as="geometry">
            <mxPoint x="1890" y="300" as="sourcePoint" />
            <mxPoint x="1890" y="300" as="targetPoint" />
          </mxGeometry>
        </mxCell>
        <mxCell id="7bwA_UZl1lktJwLHYLpA-402" value="" style="endArrow=classic;html=1;rounded=0;strokeColor=default;strokeWidth=3;align=center;verticalAlign=middle;fontFamily=Helvetica;fontSize=12;fontColor=default;fontStyle=0;labelBackgroundColor=default;" parent="1" edge="1">
          <mxGeometry width="50" height="50" relative="1" as="geometry">
            <mxPoint x="1810" y="320" as="sourcePoint" />
            <mxPoint x="1810" y="320" as="targetPoint" />
          </mxGeometry>
        </mxCell>
        <mxCell id="7bwA_UZl1lktJwLHYLpA-403" value="" style="endArrow=classic;html=1;rounded=0;strokeColor=default;strokeWidth=3;align=center;verticalAlign=middle;fontFamily=Helvetica;fontSize=12;fontColor=default;fontStyle=0;labelBackgroundColor=default;" parent="1" edge="1">
          <mxGeometry width="50" height="50" relative="1" as="geometry">
            <mxPoint x="1830" y="320" as="sourcePoint" />
            <mxPoint x="1830" y="290" as="targetPoint" />
          </mxGeometry>
        </mxCell>
        <mxCell id="7bwA_UZl1lktJwLHYLpA-405" value="" style="endArrow=none;html=1;rounded=0;strokeColor=default;strokeWidth=3;align=center;verticalAlign=middle;fontFamily=Helvetica;fontSize=12;fontColor=default;fontStyle=0;labelBackgroundColor=default;" parent="1" edge="1">
          <mxGeometry width="50" height="50" relative="1" as="geometry">
            <mxPoint x="1930" y="160" as="sourcePoint" />
            <mxPoint x="2650" y="160" as="targetPoint" />
          </mxGeometry>
        </mxCell>
        <mxCell id="7bwA_UZl1lktJwLHYLpA-408" value="" style="endArrow=classic;html=1;rounded=0;strokeColor=default;strokeWidth=3;align=center;verticalAlign=middle;fontFamily=Helvetica;fontSize=12;fontColor=default;fontStyle=0;labelBackgroundColor=default;entryX=0.841;entryY=-0.08;entryDx=0;entryDy=0;entryPerimeter=0;" parent="1" target="7bwA_UZl1lktJwLHYLpA-136" edge="1">
          <mxGeometry width="50" height="50" relative="1" as="geometry">
            <mxPoint x="1930" y="160" as="sourcePoint" />
            <mxPoint x="1930" y="230" as="targetPoint" />
            <Array as="points">
              <mxPoint x="1928" y="220" />
            </Array>
          </mxGeometry>
        </mxCell>
        <mxCell id="7bwA_UZl1lktJwLHYLpA-409" value="" style="endArrow=none;html=1;rounded=0;strokeColor=default;strokeWidth=3;align=center;verticalAlign=middle;fontFamily=Helvetica;fontSize=12;fontColor=default;fontStyle=0;labelBackgroundColor=default;" parent="1" edge="1">
          <mxGeometry width="50" height="50" relative="1" as="geometry">
            <mxPoint x="3076" y="660" as="sourcePoint" />
            <mxPoint x="3076" y="610" as="targetPoint" />
          </mxGeometry>
        </mxCell>
        <mxCell id="7bwA_UZl1lktJwLHYLpA-410" value="" style="endArrow=none;html=1;rounded=0;strokeColor=default;strokeWidth=3;align=center;verticalAlign=middle;fontFamily=Helvetica;fontSize=12;fontColor=default;fontStyle=0;labelBackgroundColor=default;" parent="1" edge="1">
          <mxGeometry width="50" height="50" relative="1" as="geometry">
            <mxPoint x="3220" y="1160" as="sourcePoint" />
            <mxPoint x="3220" y="780" as="targetPoint" />
          </mxGeometry>
        </mxCell>
        <mxCell id="7bwA_UZl1lktJwLHYLpA-413" value="" style="endArrow=classic;html=1;rounded=0;strokeColor=default;strokeWidth=3;align=center;verticalAlign=middle;fontFamily=Helvetica;fontSize=12;fontColor=default;fontStyle=0;labelBackgroundColor=default;" parent="1" edge="1">
          <mxGeometry width="50" height="50" relative="1" as="geometry">
            <mxPoint x="-389" y="470" as="sourcePoint" />
            <mxPoint x="-388.91" y="370" as="targetPoint" />
          </mxGeometry>
        </mxCell>
        <mxCell id="7bwA_UZl1lktJwLHYLpA-414" value="&lt;h1&gt;&lt;span style=&quot;font-family: gadugi; text-wrap-mode: wrap;&quot;&gt;Customer_Address&lt;/span&gt;&lt;/h1&gt;" style="text;html=1;align=center;verticalAlign=middle;resizable=0;points=[];autosize=1;strokeColor=none;fillColor=none;fontFamily=Helvetica;fontSize=15;fontColor=light-dark(#FB4828,#EDEDED);fontStyle=1;labelBackgroundColor=none;" parent="1" vertex="1">
          <mxGeometry x="-62" y="-54" width="279" height="91" as="geometry" />
        </mxCell>
        <mxCell id="7bwA_UZl1lktJwLHYLpA-415" value="&lt;h1&gt;&lt;span style=&quot;font-family: gadugi; text-wrap-mode: wrap;&quot;&gt;Rider&lt;/span&gt;&lt;/h1&gt;" style="text;html=1;align=center;verticalAlign=middle;resizable=0;points=[];autosize=1;strokeColor=none;fillColor=none;fontFamily=Helvetica;fontSize=15;fontColor=#FB4828;fontStyle=1;labelBackgroundColor=none;" parent="1" vertex="1">
          <mxGeometry x="81" y="219.5" width="93" height="91" as="geometry" />
        </mxCell>
        <mxCell id="7bwA_UZl1lktJwLHYLpA-416" value="&lt;h1&gt;&lt;span style=&quot;font-family: gadugi; text-wrap-mode: wrap;&quot;&gt;Rider_Preferred_Area&lt;/span&gt;&lt;/h1&gt;" style="text;html=1;align=center;verticalAlign=middle;resizable=0;points=[];autosize=1;strokeColor=none;fillColor=none;fontFamily=Helvetica;fontSize=15;fontColor=#FB4828;fontStyle=1;labelBackgroundColor=none;" parent="1" vertex="1">
          <mxGeometry x="-365" y="397" width="316" height="91" as="geometry" />
        </mxCell>
        <mxCell id="7bwA_UZl1lktJwLHYLpA-418" value="&lt;h1&gt;&lt;span style=&quot;font-family: gadugi; text-wrap-mode: wrap;&quot;&gt;&lt;font&gt;Category&lt;/font&gt;&lt;/span&gt;&lt;/h1&gt;" style="text;html=1;align=center;verticalAlign=middle;resizable=0;points=[];autosize=1;strokeColor=none;fillColor=none;fontFamily=Helvetica;fontSize=16;fontColor=#FB4828;fontStyle=1;labelBackgroundColor=none;" parent="1" vertex="1">
          <mxGeometry x="-315" y="727" width="154" height="95" as="geometry" />
        </mxCell>
        <mxCell id="7bwA_UZl1lktJwLHYLpA-420" value="&lt;h1&gt;&lt;span style=&quot;font-family: gadugi; text-wrap-mode: wrap;&quot;&gt;Cart_Item&lt;/span&gt;&lt;/h1&gt;" style="text;html=1;align=center;verticalAlign=middle;resizable=0;points=[];autosize=1;strokeColor=none;fillColor=none;fontFamily=Helvetica;fontSize=15;fontColor=#FB4828;fontStyle=1;labelBackgroundColor=none;" parent="1" vertex="1">
          <mxGeometry x="-217" y="870" width="154" height="91" as="geometry" />
        </mxCell>
        <mxCell id="7bwA_UZl1lktJwLHYLpA-421" value="&lt;h1&gt;&lt;span style=&quot;font-family: gadugi; text-wrap-mode: wrap;&quot;&gt;Payment&lt;/span&gt;&lt;/h1&gt;" style="text;html=1;align=center;verticalAlign=middle;resizable=0;points=[];autosize=1;strokeColor=none;fillColor=none;fontFamily=Helvetica;fontSize=15;fontColor=#FB4828;fontStyle=1;labelBackgroundColor=none;" parent="1" vertex="1">
          <mxGeometry x="-211" y="1047" width="142" height="91" as="geometry" />
        </mxCell>
        <mxCell id="7bwA_UZl1lktJwLHYLpA-422" value="&lt;h1&gt;&lt;span style=&quot;font-family: gadugi; text-wrap-mode: wrap;&quot;&gt;Gift_Card_Transaction&lt;/span&gt;&lt;/h1&gt;" style="text;html=1;align=center;verticalAlign=middle;resizable=0;points=[];autosize=1;strokeColor=none;fillColor=none;fontFamily=Helvetica;fontSize=15;fontColor=#FB4828;fontStyle=1;labelBackgroundColor=none;" parent="1" vertex="1">
          <mxGeometry x="-243" y="1184" width="326" height="91" as="geometry" />
        </mxCell>
        <mxCell id="7bwA_UZl1lktJwLHYLpA-423" value="&lt;h1&gt;&lt;span style=&quot;font-family: gadugi; text-wrap-mode: wrap;&quot;&gt;First_Order_Discount&lt;/span&gt;&lt;/h1&gt;" style="text;html=1;align=center;verticalAlign=middle;resizable=0;points=[];autosize=1;strokeColor=none;fillColor=none;fontFamily=Helvetica;fontSize=15;fontColor=#FB4828;fontStyle=1;labelBackgroundColor=none;" parent="1" vertex="1">
          <mxGeometry x="-230" y="1361" width="310" height="91" as="geometry" />
        </mxCell>
        <mxCell id="7bwA_UZl1lktJwLHYLpA-424" value="&lt;h1&gt;&lt;span style=&quot;font-family: gadugi; text-wrap-mode: wrap;&quot;&gt;Delivery&lt;/span&gt;&lt;/h1&gt;" style="text;html=1;align=center;verticalAlign=middle;resizable=0;points=[];autosize=1;strokeColor=none;fillColor=none;fontFamily=Helvetica;fontSize=15;fontColor=#FB4828;fontStyle=1;labelBackgroundColor=none;" parent="1" vertex="1">
          <mxGeometry x="2148.5" y="1093" width="134" height="91" as="geometry" />
        </mxCell>
        <mxCell id="7bwA_UZl1lktJwLHYLpA-425" value="&lt;h1&gt;&lt;span style=&quot;font-family: gadugi; text-wrap-mode: wrap;&quot;&gt;Cart&lt;/span&gt;&lt;/h1&gt;" style="text;html=1;align=center;verticalAlign=middle;resizable=0;points=[];autosize=1;strokeColor=none;fillColor=none;fontFamily=Helvetica;fontSize=15;fontColor=#FB4828;fontStyle=1;labelBackgroundColor=none;" parent="1" vertex="1">
          <mxGeometry x="1922.5" y="966" width="76" height="91" as="geometry" />
        </mxCell>
        <mxCell id="7bwA_UZl1lktJwLHYLpA-426" value="&lt;h1&gt;&lt;span style=&quot;font-family: gadugi; text-wrap-mode: wrap;&quot;&gt;Order&lt;/span&gt;&lt;/h1&gt;" style="text;html=1;align=center;verticalAlign=middle;resizable=0;points=[];autosize=1;strokeColor=none;fillColor=none;fontFamily=Helvetica;fontSize=15;fontColor=#FB4828;fontStyle=1;labelBackgroundColor=none;" parent="1" vertex="1">
          <mxGeometry x="2256" y="807" width="99" height="91" as="geometry" />
        </mxCell>
        <mxCell id="7bwA_UZl1lktJwLHYLpA-427" value="&lt;h1&gt;&lt;span style=&quot;font-family: gadugi; text-wrap-mode: wrap;&quot;&gt;Gift_Card&lt;/span&gt;&lt;/h1&gt;" style="text;html=1;align=center;verticalAlign=middle;resizable=0;points=[];autosize=1;strokeColor=none;fillColor=none;fontFamily=Helvetica;fontSize=15;fontColor=#FB4828;fontStyle=1;labelBackgroundColor=none;" parent="1" vertex="1">
          <mxGeometry x="2235" y="640" width="149" height="91" as="geometry" />
        </mxCell>
        <mxCell id="7bwA_UZl1lktJwLHYLpA-428" value="&lt;h1&gt;&lt;span style=&quot;font-family: gadugi; text-wrap-mode: wrap;&quot;&gt;Product&lt;/span&gt;&lt;/h1&gt;" style="text;html=1;align=center;verticalAlign=middle;resizable=0;points=[];autosize=1;strokeColor=none;fillColor=none;fontFamily=Helvetica;fontSize=15;fontColor=#FB4828;fontStyle=1;labelBackgroundColor=none;" parent="1" vertex="1">
          <mxGeometry x="2218" y="472" width="130" height="91" as="geometry" />
        </mxCell>
        <mxCell id="7bwA_UZl1lktJwLHYLpA-429" value="&lt;h1&gt;&lt;span style=&quot;font-family: gadugi; text-wrap-mode: wrap;&quot;&gt;Admin&lt;/span&gt;&lt;/h1&gt;" style="text;html=1;align=center;verticalAlign=middle;resizable=0;points=[];autosize=1;strokeColor=none;fillColor=none;fontFamily=Helvetica;fontSize=15;fontColor=#FB4828;fontStyle=1;labelBackgroundColor=none;" parent="1" vertex="1">
          <mxGeometry x="2187" y="324" width="112" height="91" as="geometry" />
        </mxCell>
        <mxCell id="7bwA_UZl1lktJwLHYLpA-430" value="&lt;h1&gt;&lt;span style=&quot;font-family: gadugi; text-wrap-mode: wrap;&quot;&gt;User&lt;/span&gt;&lt;/h1&gt;" style="text;html=1;align=center;verticalAlign=middle;resizable=0;points=[];autosize=1;strokeColor=none;fillColor=none;fontFamily=Helvetica;fontSize=15;fontColor=#FB4828;fontStyle=1;labelBackgroundColor=none;" parent="1" vertex="1">
          <mxGeometry x="2146" y="165" width="81" height="91" as="geometry" />
        </mxCell>
        <mxCell id="7bwA_UZl1lktJwLHYLpA-431" value="&lt;h1&gt;&lt;span style=&quot;font-family: gadugi; text-wrap-mode: wrap;&quot;&gt;Customer&lt;/span&gt;&lt;/h1&gt;" style="text;html=1;align=center;verticalAlign=middle;resizable=0;points=[];autosize=1;strokeColor=none;fillColor=none;fontFamily=Helvetica;fontSize=15;fontColor=#FB4828;fontStyle=1;labelBackgroundColor=none;" parent="1" vertex="1">
          <mxGeometry x="2166" y="-1" width="154" height="91" as="geometry" />
        </mxCell>
        <mxCell id="7bwA_UZl1lktJwLHYLpA-433" value="&lt;h1&gt;&lt;span style=&quot;font-family: gadugi; text-wrap-mode: wrap;&quot;&gt;&lt;font&gt;Product_Audit&lt;/font&gt;&lt;/span&gt;&lt;/h1&gt;" style="text;html=1;align=center;verticalAlign=middle;resizable=0;points=[];autosize=1;strokeColor=none;fillColor=none;fontFamily=Helvetica;fontSize=16;fontColor=#FB4828;fontStyle=1;labelBackgroundColor=none;" parent="1" vertex="1">
          <mxGeometry x="-88" y="556" width="233" height="95" as="geometry" />
        </mxCell>
        <mxCell id="7bwA_UZl1lktJwLHYLpA-436" value="ERD to Relational Mapping By Using A Mapping Algorithm" style="text;html=1;align=center;verticalAlign=middle;resizable=0;points=[];autosize=1;strokeColor=none;fillColor=none;fontFamily=gadugi;fontSize=39;fontColor=light-dark(#f74a4a, #ededed);fontStyle=1;labelBackgroundColor=none;" parent="1" vertex="1">
          <mxGeometry x="-458" y="-193" width="1027" height="59" as="geometry" />
        </mxCell>
      </root>
    </mxGraphModel>
  </diagram>
</mxfile>
